# MagicaVoxel @ Ephtracy

# group
o 

# material
mtllib CharacterHeadBusinessMan4Shader.mtl
usemtl palette

# normals
vn -1 0 0
vn 1 0 0
vn 0 0 1
vn 0 0 -1
vn 0 -1 0
vn 0 1 0

# texcoords
vt 0.0917969 0.5
vt 0.369141 0.5
vt 0.841797 0.5
vt 0.884766 0.5
vt 0.970703 0.5
vt 0.982422 0.5
vt 0.990234 0.5

# verts
v 1.2 4.5 -1.8
v 1.2 4.5 -2.2
v 1.2 4.8 -1.8
v 1.2 4.8 -2.2
v 1.2 5.1 -1.5
v 1.2 5.1 -2.5
v 1.2 5.3 -1.5
v 1.2 5.3 -2.5
v 1.3 4.4 -1.9
v 1.3 4.4 -2.1
v 1.3 4.5 -1.9
v 1.3 4.5 -2.1
v 1.3 5.1 -1.4
v 1.3 5.1 -1.5
v 1.3 5.1 -2.5
v 1.3 5.1 -2.6
v 1.3 5.3 -1.4
v 1.3 5.3 -1.5
v 1.3 5.3 -2.5
v 1.3 5.3 -2.6
v 1.4 4.1 -1.7
v 1.4 4.1 -2.3
v 1.4 4.2 -1.6
v 1.4 4.2 -1.7
v 1.4 4.2 -2.3
v 1.4 4.2 -2.4
v 1.4 4.4 -1.9
v 1.4 4.4 -2.1
v 1.4 4.5 -1.8
v 1.4 4.5 -1.9
v 1.4 4.5 -2.1
v 1.4 4.5 -2.2
v 1.4 4.8 -1.8
v 1.4 4.8 -2.2
v 1.4 5.1 -1.6
v 1.4 5.1 -2.4
v 1.4 5.3 -1.6
v 1.4 5.3 -2.4
v 1.4 5.5 -1.6
v 1.4 5.5 -2.4
v 1.4 5.7 -1.6
v 1.4 5.7 -2.4
v 1.5 4 -1.8
v 1.5 4 -2.4
v 1.5 4.1 -1.8
v 1.5 4.1 -2.3
v 1.5 4.2 -2.3
v 1.5 4.2 -2.4
v 1.5 5.7 -1.7
v 1.5 5.7 -2.3
v 1.5 5.8 -1.7
v 1.5 5.8 -2.3
v 1.6 3.9 -1.8
v 1.6 3.9 -2.4
v 1.6 4 -1.7
v 1.6 4 -1.8
v 1.6 4 -2.4
v 1.6 4.1 -1.6
v 1.6 4.1 -1.7
v 1.6 4.1 -1.8
v 1.6 4.2 -1.6
v 1.6 4.2 -1.7
v 1.7 3.4 -1.7
v 1.7 3.4 -2.3
v 1.7 3.8 -2.3
v 1.7 3.8 -2.4
v 1.7 3.9 -1.8
v 1.7 3.9 -2.4
v 1.7 4 -1.6
v 1.7 4 -1.7
v 1.7 4 -1.8
v 1.7 4.1 -1.6
v 1.7 4.1 -1.7
v 2.1 3.8 -2.3
v 2.1 3.8 -2.4
v 2.1 3.9 -2.3
v 2.1 3.9 -2.4
v 1.9 3.8 -2.3
v 1.9 3.8 -2.4
v 1.9 3.9 -2.3
v 1.9 3.9 -2.4
v 2.3 3.4 -1.7
v 2.3 3.4 -2.3
v 2.3 3.8 -2.3
v 2.3 3.8 -2.4
v 2.3 3.9 -1.8
v 2.3 3.9 -2.4
v 2.3 4 -1.6
v 2.3 4 -1.7
v 2.3 4 -1.8
v 2.3 4.1 -1.6
v 2.3 4.1 -1.7
v 2.4 3.9 -1.8
v 2.4 3.9 -2.4
v 2.4 4 -1.7
v 2.4 4 -1.8
v 2.4 4 -2.4
v 2.4 4.1 -1.6
v 2.4 4.1 -1.7
v 2.4 4.1 -1.8
v 2.4 4.2 -1.6
v 2.4 4.2 -1.7
v 2.5 4 -1.8
v 2.5 4 -2.4
v 2.5 4.1 -1.8
v 2.5 4.1 -2.3
v 2.5 4.2 -2.3
v 2.5 4.2 -2.4
v 2.5 5.7 -1.7
v 2.5 5.7 -2.3
v 2.5 5.8 -1.7
v 2.5 5.8 -2.3
v 2.6 4.1 -1.7
v 2.6 4.1 -2.3
v 2.6 4.2 -1.6
v 2.6 4.2 -1.7
v 2.6 4.2 -2.3
v 2.6 4.2 -2.4
v 2.6 4.4 -1.9
v 2.6 4.4 -2.1
v 2.6 4.5 -1.8
v 2.6 4.5 -1.9
v 2.6 4.5 -2.1
v 2.6 4.5 -2.2
v 2.6 4.8 -1.8
v 2.6 4.8 -2.2
v 2.6 5.1 -1.6
v 2.6 5.1 -2.4
v 2.6 5.3 -1.6
v 2.6 5.3 -2.4
v 2.6 5.5 -1.6
v 2.6 5.5 -2.4
v 2.6 5.7 -1.6
v 2.6 5.7 -2.4
v 2.7 4.4 -1.9
v 2.7 4.4 -2.1
v 2.7 4.5 -1.9
v 2.7 4.5 -2.1
v 2.7 5.1 -1.4
v 2.7 5.1 -1.5
v 2.7 5.1 -2.5
v 2.7 5.1 -2.6
v 2.7 5.3 -1.4
v 2.7 5.3 -1.5
v 2.7 5.3 -2.5
v 2.7 5.3 -2.6
v 2.8 4.5 -1.8
v 2.8 4.5 -2.2
v 2.8 4.8 -1.8
v 2.8 4.8 -2.2
v 2.8 5.1 -1.5
v 2.8 5.1 -2.5
v 2.8 5.3 -1.5
v 2.8 5.3 -2.5
v 1.3 5.1 -1.4
v 1.3 5.3 -1.4
v 2.7 5.1 -1.4
v 2.7 5.3 -1.4
v 1.2 5.1 -1.5
v 1.2 5.3 -1.5
v 1.3 5.1 -1.5
v 1.3 5.3 -1.5
v 2.7 5.1 -1.5
v 2.7 5.3 -1.5
v 2.8 5.1 -1.5
v 2.8 5.3 -1.5
v 1.4 4.2 -1.6
v 1.4 5.1 -1.6
v 1.4 5.3 -1.6
v 1.4 5.5 -1.6
v 1.4 5.7 -1.6
v 1.6 4.1 -1.6
v 1.6 4.2 -1.6
v 1.7 4 -1.6
v 1.7 4.1 -1.6
v 2.3 4 -1.6
v 2.3 4.1 -1.6
v 2.4 4.1 -1.6
v 2.4 4.2 -1.6
v 2.6 4.2 -1.6
v 2.6 5.1 -1.6
v 2.6 5.3 -1.6
v 2.6 5.5 -1.6
v 2.6 5.7 -1.6
v 1.4 4.1 -1.7
v 1.4 4.2 -1.7
v 1.5 5.7 -1.7
v 1.5 5.8 -1.7
v 1.6 4 -1.7
v 1.6 4.1 -1.7
v 1.6 4.2 -1.7
v 1.7 3.4 -1.7
v 1.7 4 -1.7
v 1.7 4.1 -1.7
v 2.3 3.4 -1.7
v 2.3 4 -1.7
v 2.3 4.1 -1.7
v 2.4 4 -1.7
v 2.4 4.1 -1.7
v 2.4 4.2 -1.7
v 2.5 5.7 -1.7
v 2.5 5.8 -1.7
v 2.6 4.1 -1.7
v 2.6 4.2 -1.7
v 1.2 4.5 -1.8
v 1.2 4.8 -1.8
v 1.4 4.5 -1.8
v 1.4 4.8 -1.8
v 1.5 4 -1.8
v 1.5 4.1 -1.8
v 1.6 3.9 -1.8
v 1.6 4 -1.8
v 1.6 4.1 -1.8
v 1.7 3.9 -1.8
v 1.7 4 -1.8
v 2.3 3.9 -1.8
v 2.3 4 -1.8
v 2.4 3.9 -1.8
v 2.4 4 -1.8
v 2.4 4.1 -1.8
v 2.5 4 -1.8
v 2.5 4.1 -1.8
v 2.6 4.5 -1.8
v 2.6 4.8 -1.8
v 2.8 4.5 -1.8
v 2.8 4.8 -1.8
v 1.3 4.4 -1.9
v 1.3 4.5 -1.9
v 1.4 4.4 -1.9
v 1.4 4.5 -1.9
v 2.6 4.4 -1.9
v 2.6 4.5 -1.9
v 2.7 4.4 -1.9
v 2.7 4.5 -1.9
v 1.3 4.4 -2.1
v 1.3 4.5 -2.1
v 1.4 4.4 -2.1
v 1.4 4.5 -2.1
v 2.6 4.4 -2.1
v 2.6 4.5 -2.1
v 2.7 4.4 -2.1
v 2.7 4.5 -2.1
v 1.2 4.5 -2.2
v 1.2 4.8 -2.2
v 1.4 4.5 -2.2
v 1.4 4.8 -2.2
v 2.6 4.5 -2.2
v 2.6 4.8 -2.2
v 2.8 4.5 -2.2
v 2.8 4.8 -2.2
v 1.4 4.1 -2.3
v 1.4 4.2 -2.3
v 1.5 4.1 -2.3
v 1.5 4.2 -2.3
v 1.5 5.7 -2.3
v 1.5 5.8 -2.3
v 1.7 3.4 -2.3
v 1.7 3.8 -2.3
v 1.9 3.8 -2.3
v 1.9 3.9 -2.3
v 2.1 3.8 -2.3
v 2.1 3.9 -2.3
v 2.3 3.4 -2.3
v 2.3 3.8 -2.3
v 2.5 4.1 -2.3
v 2.5 4.2 -2.3
v 2.5 5.7 -2.3
v 2.5 5.8 -2.3
v 2.6 4.1 -2.3
v 2.6 4.2 -2.3
v 1.4 4.2 -2.4
v 1.4 5.1 -2.4
v 1.4 5.3 -2.4
v 1.4 5.5 -2.4
v 1.4 5.7 -2.4
v 1.5 4 -2.4
v 1.5 4.2 -2.4
v 1.6 3.9 -2.4
v 1.6 4 -2.4
v 1.6 4.3 -2.4
v 1.6 4.5 -2.4
v 1.6 4.6 -2.4
v 1.6 4.9 -2.4
v 1.7 3.8 -2.4
v 1.7 3.9 -2.4
v 1.7 4.2 -2.4
v 1.7 4.3 -2.4
v 1.7 4.4 -2.4
v 1.7 4.5 -2.4
v 1.7 4.6 -2.4
v 1.7 4.8 -2.4
v 1.8 4.2 -2.4
v 1.8 4.3 -2.4
v 1.9 3.8 -2.4
v 1.9 3.9 -2.4
v 1.9 4.6 -2.4
v 1.9 4.8 -2.4
v 1.9 4.9 -2.4
v 2.1 3.8 -2.4
v 2.1 3.9 -2.4
v 2.1 4.6 -2.4
v 2.1 4.8 -2.4
v 2.1 4.9 -2.4
v 2.2 4.2 -2.4
v 2.2 4.3 -2.4
v 2.3 3.8 -2.4
v 2.3 3.9 -2.4
v 2.3 4.2 -2.4
v 2.3 4.3 -2.4
v 2.3 4.4 -2.4
v 2.3 4.5 -2.4
v 2.3 4.6 -2.4
v 2.3 4.8 -2.4
v 2.4 3.9 -2.4
v 2.4 4 -2.4
v 2.4 4.3 -2.4
v 2.4 4.5 -2.4
v 2.4 4.6 -2.4
v 2.4 4.9 -2.4
v 2.5 4 -2.4
v 2.5 4.2 -2.4
v 2.6 4.2 -2.4
v 2.6 5.1 -2.4
v 2.6 5.3 -2.4
v 2.6 5.5 -2.4
v 2.6 5.7 -2.4
v 1.2 5.1 -2.5
v 1.2 5.3 -2.5
v 1.3 5.1 -2.5
v 1.3 5.3 -2.5
v 2.7 5.1 -2.5
v 2.7 5.3 -2.5
v 2.8 5.1 -2.5
v 2.8 5.3 -2.5
v 1.3 5.1 -2.6
v 1.3 5.3 -2.6
v 2.7 5.1 -2.6
v 2.7 5.3 -2.6
v 1.7 3.4 -1.7
v 2.3 3.4 -1.7
v 1.7 3.4 -2.3
v 2.3 3.4 -2.3
v 1.7 3.8 -2.3
v 1.9 3.8 -2.3
v 2.1 3.8 -2.3
v 2.3 3.8 -2.3
v 1.7 3.8 -2.4
v 1.9 3.8 -2.4
v 2.1 3.8 -2.4
v 2.3 3.8 -2.4
v 1.6 3.9 -1.8
v 1.7 3.9 -1.8
v 2.3 3.9 -1.8
v 2.4 3.9 -1.8
v 1.9 3.9 -2.3
v 2.1 3.9 -2.3
v 1.6 3.9 -2.4
v 1.7 3.9 -2.4
v 1.9 3.9 -2.4
v 2.1 3.9 -2.4
v 2.3 3.9 -2.4
v 2.4 3.9 -2.4
v 1.7 4 -1.6
v 2.3 4 -1.6
v 1.6 4 -1.7
v 1.7 4 -1.7
v 2.3 4 -1.7
v 2.4 4 -1.7
v 1.5 4 -1.8
v 1.6 4 -1.8
v 1.7 4 -1.8
v 2.3 4 -1.8
v 2.4 4 -1.8
v 2.5 4 -1.8
v 1.5 4 -2.4
v 1.6 4 -2.4
v 2.4 4 -2.4
v 2.5 4 -2.4
v 1.6 4.1 -1.6
v 1.7 4.1 -1.6
v 2.3 4.1 -1.6
v 2.4 4.1 -1.6
v 1.4 4.1 -1.7
v 1.6 4.1 -1.7
v 1.7 4.1 -1.7
v 2.3 4.1 -1.7
v 2.4 4.1 -1.7
v 2.6 4.1 -1.7
v 1.5 4.1 -1.8
v 1.6 4.1 -1.8
v 2.4 4.1 -1.8
v 2.5 4.1 -1.8
v 1.4 4.1 -2.3
v 1.5 4.1 -2.3
v 2.5 4.1 -2.3
v 2.6 4.1 -2.3
v 1.4 4.2 -1.6
v 1.6 4.2 -1.6
v 2.4 4.2 -1.6
v 2.6 4.2 -1.6
v 1.4 4.2 -1.7
v 1.6 4.2 -1.7
v 2.4 4.2 -1.7
v 2.6 4.2 -1.7
v 1.4 4.2 -2.3
v 1.5 4.2 -2.3
v 2.5 4.2 -2.3
v 2.6 4.2 -2.3
v 1.4 4.2 -2.4
v 1.5 4.2 -2.4
v 2.5 4.2 -2.4
v 2.6 4.2 -2.4
v 1.3 4.4 -1.9
v 1.4 4.4 -1.9
v 2.6 4.4 -1.9
v 2.7 4.4 -1.9
v 1.3 4.4 -2.1
v 1.4 4.4 -2.1
v 2.6 4.4 -2.1
v 2.7 4.4 -2.1
v 1.2 4.5 -1.8
v 1.4 4.5 -1.8
v 2.6 4.5 -1.8
v 2.8 4.5 -1.8
v 1.3 4.5 -1.9
v 1.4 4.5 -1.9
v 2.6 4.5 -1.9
v 2.7 4.5 -1.9
v 1.3 4.5 -2.1
v 1.4 4.5 -2.1
v 2.6 4.5 -2.1
v 2.7 4.5 -2.1
v 1.2 4.5 -2.2
v 1.4 4.5 -2.2
v 2.6 4.5 -2.2
v 2.8 4.5 -2.2
v 1.3 5.1 -1.4
v 2.7 5.1 -1.4
v 1.2 5.1 -1.5
v 1.3 5.1 -1.5
v 2.7 5.1 -1.5
v 2.8 5.1 -1.5
v 1.4 5.1 -1.6
v 2.6 5.1 -1.6
v 1.4 5.1 -2.4
v 2.6 5.1 -2.4
v 1.2 5.1 -2.5
v 1.3 5.1 -2.5
v 2.7 5.1 -2.5
v 2.8 5.1 -2.5
v 1.3 5.1 -2.6
v 2.7 5.1 -2.6
v 1.2 4.8 -1.8
v 1.4 4.8 -1.8
v 2.6 4.8 -1.8
v 2.8 4.8 -1.8
v 1.2 4.8 -2.2
v 1.4 4.8 -2.2
v 2.6 4.8 -2.2
v 2.8 4.8 -2.2
v 1.3 5.3 -1.4
v 2.7 5.3 -1.4
v 1.2 5.3 -1.5
v 1.3 5.3 -1.5
v 2.7 5.3 -1.5
v 2.8 5.3 -1.5
v 1.4 5.3 -1.6
v 2.6 5.3 -1.6
v 1.4 5.3 -2.4
v 2.6 5.3 -2.4
v 1.2 5.3 -2.5
v 1.3 5.3 -2.5
v 2.7 5.3 -2.5
v 2.8 5.3 -2.5
v 1.3 5.3 -2.6
v 2.7 5.3 -2.6
v 1.4 5.7 -1.6
v 2.6 5.7 -1.6
v 1.5 5.7 -1.7
v 2.5 5.7 -1.7
v 1.5 5.7 -2.3
v 2.5 5.7 -2.3
v 1.4 5.7 -2.4
v 2.6 5.7 -2.4
v 1.5 5.8 -1.7
v 2.5 5.8 -1.7
v 1.5 5.8 -2.3
v 2.5 5.8 -2.3

# faces
f 3/4/1 2/4/1 1/4/1
f 4/4/1 2/4/1 3/4/1
f 7/6/1 6/6/1 5/6/1
f 8/6/1 6/6/1 7/6/1
f 11/4/1 10/4/1 9/4/1
f 12/4/1 10/4/1 11/4/1
f 17/6/1 14/6/1 13/6/1
f 18/6/1 14/6/1 17/6/1
f 19/6/1 16/6/1 15/6/1
f 20/6/1 16/6/1 19/6/1
f 24/4/1 22/4/1 21/4/1
f 25/4/1 22/4/1 24/4/1
f 27/4/1 24/4/1 23/4/1
f 27/4/1 26/4/1 25/4/1
f 27/4/1 25/4/1 24/4/1
f 28/4/1 26/4/1 27/4/1
f 29/4/1 27/4/1 23/4/1
f 30/4/1 27/4/1 29/4/1
f 31/4/1 26/4/1 28/4/1
f 32/4/1 26/4/1 31/4/1
f 33/4/1 29/4/1 23/4/1
f 34/4/1 26/4/1 32/4/1
f 35/4/1 33/4/1 23/4/1
f 35/4/1 34/4/1 33/4/1
f 36/4/1 26/4/1 34/4/1
f 36/4/1 34/4/1 35/4/1
f 39/5/1 38/5/1 37/5/1
f 40/5/1 38/5/1 39/5/1
f 41/6/1 40/6/1 39/6/1
f 42/6/1 40/6/1 41/6/1
f 45/4/1 44/4/1 43/4/1
f 46/4/1 44/4/1 45/4/1
f 47/4/1 44/4/1 46/4/1
f 48/4/1 44/4/1 47/4/1
f 51/6/1 50/6/1 49/6/1
f 52/6/1 50/6/1 51/6/1
f 56/4/1 54/4/1 53/4/1
f 57/4/1 54/4/1 56/4/1
f 59/4/1 56/4/1 55/4/1
f 60/4/1 56/4/1 59/4/1
f 61/4/1 59/4/1 58/4/1
f 62/4/1 59/4/1 61/4/1
f 65/4/1 64/4/1 63/4/1
f 67/4/1 65/4/1 63/4/1
f 67/4/1 66/4/1 65/4/1
f 68/4/1 66/4/1 67/4/1
f 70/4/1 67/4/1 63/4/1
f 71/4/1 67/4/1 70/4/1
f 72/4/1 70/4/1 69/4/1
f 73/4/1 70/4/1 72/4/1
f 76/4/1 75/4/1 74/4/1
f 77/4/1 75/4/1 76/4/1
f 78/4/2 79/4/2 80/4/2
f 80/4/2 79/4/2 81/4/2
f 82/4/2 83/4/2 84/4/2
f 82/4/2 84/4/2 86/4/2
f 84/4/2 85/4/2 86/4/2
f 86/4/2 85/4/2 87/4/2
f 82/4/2 86/4/2 89/4/2
f 89/4/2 86/4/2 90/4/2
f 88/4/2 89/4/2 91/4/2
f 91/4/2 89/4/2 92/4/2
f 93/4/2 94/4/2 96/4/2
f 96/4/2 94/4/2 97/4/2
f 95/4/2 96/4/2 99/4/2
f 99/4/2 96/4/2 100/4/2
f 98/4/2 99/4/2 101/4/2
f 101/4/2 99/4/2 102/4/2
f 103/4/2 104/4/2 105/4/2
f 105/4/2 104/4/2 106/4/2
f 106/4/2 104/4/2 107/4/2
f 107/4/2 104/4/2 108/4/2
f 109/6/2 110/6/2 111/6/2
f 111/6/2 110/6/2 112/6/2
f 113/4/2 114/4/2 116/4/2
f 116/4/2 114/4/2 117/4/2
f 115/4/2 116/4/2 119/4/2
f 117/4/2 118/4/2 119/4/2
f 116/4/2 117/4/2 119/4/2
f 119/4/2 118/4/2 120/4/2
f 115/4/2 119/4/2 121/4/2
f 121/4/2 119/4/2 122/4/2
f 120/4/2 118/4/2 123/4/2
f 123/4/2 118/4/2 124/4/2
f 115/4/2 121/4/2 125/4/2
f 124/4/2 118/4/2 126/4/2
f 115/4/2 125/4/2 127/4/2
f 125/4/2 126/4/2 127/4/2
f 126/4/2 118/4/2 128/4/2
f 127/4/2 126/4/2 128/4/2
f 129/5/2 130/5/2 131/5/2
f 131/5/2 130/5/2 132/5/2
f 131/6/2 132/6/2 133/6/2
f 133/6/2 132/6/2 134/6/2
f 135/4/2 136/4/2 137/4/2
f 137/4/2 136/4/2 138/4/2
f 139/6/2 140/6/2 143/6/2
f 143/6/2 140/6/2 144/6/2
f 141/6/2 142/6/2 145/6/2
f 145/6/2 142/6/2 146/6/2
f 147/4/2 148/4/2 149/4/2
f 149/4/2 148/4/2 150/4/2
f 151/6/2 152/6/2 153/6/2
f 153/6/2 152/6/2 154/6/2
f 157/6/3 156/6/3 155/6/3
f 158/6/3 156/6/3 157/6/3
f 161/6/3 160/6/3 159/6/3
f 162/6/3 160/6/3 161/6/3
f 165/6/3 164/6/3 163/6/3
f 166/6/3 164/6/3 165/6/3
f 173/4/3 168/4/3 167/4/3
f 175/4/3 173/4/3 172/4/3
f 176/4/3 175/4/3 174/4/3
f 177/4/3 173/4/3 175/4/3
f 177/4/3 175/4/3 176/4/3
f 178/4/3 173/4/3 177/4/3
f 179/4/3 168/4/3 173/4/3
f 179/4/3 173/4/3 178/4/3
f 180/4/3 168/4/3 179/4/3
f 181/4/3 168/4/3 180/4/3
f 182/5/3 170/5/3 169/5/3
f 183/6/3 171/6/3 170/6/3
f 183/5/3 170/5/3 182/5/3
f 184/6/3 171/6/3 183/6/3
f 190/4/3 186/4/3 185/4/3
f 191/4/3 186/4/3 190/4/3
f 193/4/3 190/4/3 189/4/3
f 194/4/3 190/4/3 193/4/3
f 195/4/3 193/4/3 192/4/3
f 196/4/3 193/4/3 195/4/3
f 198/4/3 197/4/3 196/4/3
f 199/4/3 197/4/3 198/4/3
f 201/6/3 188/6/3 187/6/3
f 202/6/3 188/6/3 201/6/3
f 203/4/3 200/4/3 199/4/3
f 204/4/3 200/4/3 203/4/3
f 207/4/3 206/4/3 205/4/3
f 208/4/3 206/4/3 207/4/3
f 212/4/3 210/4/3 209/4/3
f 213/4/3 210/4/3 212/4/3
f 214/4/3 212/4/3 211/4/3
f 215/4/3 212/4/3 214/4/3
f 218/4/3 217/4/3 216/4/3
f 219/4/3 217/4/3 218/4/3
f 221/4/3 220/4/3 219/4/3
f 222/4/3 220/4/3 221/4/3
f 225/4/3 224/4/3 223/4/3
f 226/4/3 224/4/3 225/4/3
f 229/4/3 228/4/3 227/4/3
f 230/4/3 228/4/3 229/4/3
f 233/4/3 232/4/3 231/4/3
f 234/4/3 232/4/3 233/4/3
f 235/4/4 236/4/4 237/4/4
f 237/4/4 236/4/4 238/4/4
f 239/4/4 240/4/4 241/4/4
f 241/4/4 240/4/4 242/4/4
f 243/4/4 244/4/4 245/4/4
f 245/4/4 244/4/4 246/4/4
f 247/4/4 248/4/4 249/4/4
f 249/4/4 248/4/4 250/4/4
f 251/4/4 252/4/4 253/4/4
f 253/4/4 252/4/4 254/4/4
f 257/4/4 258/4/4 259/4/4
f 257/4/4 259/4/4 261/4/4
f 259/4/4 260/4/4 261/4/4
f 261/4/4 260/4/4 262/4/4
f 257/4/4 261/4/4 263/4/4
f 263/4/4 261/4/4 264/4/4
f 255/6/4 256/6/4 267/6/4
f 267/6/4 256/6/4 268/6/4
f 265/4/4 266/4/4 269/4/4
f 269/4/4 266/4/4 270/4/4
f 271/4/4 272/4/4 277/4/4
f 276/4/4 277/4/4 279/4/4
f 277/4/4 272/4/4 280/4/4
f 279/4/4 277/4/4 280/4/4
f 280/4/4 272/4/4 281/4/4
f 281/4/4 272/4/4 282/4/4
f 282/4/4 272/4/4 283/4/4
f 278/4/4 279/4/4 285/4/4
f 279/4/4 280/4/4 285/4/4
f 285/4/4 280/4/4 286/4/4
f 280/7/4 281/7/4 287/7/4
f 286/4/4 280/4/4 287/4/4
f 287/7/4 281/7/4 288/7/4
f 281/4/4 282/4/4 289/4/4
f 288/7/4 281/7/4 289/7/4
f 282/5/4 283/5/4 290/5/4
f 289/4/4 282/4/4 290/4/4
f 290/5/4 283/5/4 291/5/4
f 285/4/4 286/4/4 292/4/4
f 287/7/4 288/7/4 292/7/4
f 284/4/4 285/4/4 292/4/4
f 286/7/4 287/7/4 292/7/4
f 292/7/4 288/7/4 293/7/4
f 284/4/4 292/4/4 294/4/4
f 294/4/4 292/4/4 295/4/4
f 288/4/4 289/4/4 296/4/4
f 290/7/4 291/7/4 296/7/4
f 289/4/4 290/4/4 296/4/4
f 291/5/4 283/5/4 297/5/4
f 296/7/4 291/7/4 297/7/4
f 283/4/4 272/4/4 298/4/4
f 297/5/4 283/5/4 298/5/4
f 295/4/4 292/4/4 300/4/4
f 296/4/4 297/4/4 301/4/4
f 297/4/4 298/4/4 301/4/4
f 288/4/4 296/4/4 301/4/4
f 301/4/4 298/4/4 302/4/4
f 298/4/4 272/4/4 303/4/4
f 302/4/4 298/4/4 303/4/4
f 299/4/4 300/4/4 304/4/4
f 300/4/4 292/4/4 304/4/4
f 292/3/4 293/3/4 304/3/4
f 293/7/4 288/7/4 305/7/4
f 304/3/4 293/3/4 305/3/4
f 299/4/4 304/4/4 306/4/4
f 306/4/4 304/4/4 307/4/4
f 304/7/4 305/7/4 308/7/4
f 307/4/4 304/4/4 308/4/4
f 305/7/4 288/7/4 309/7/4
f 308/7/4 305/7/4 309/7/4
f 288/4/4 301/4/4 310/4/4
f 309/7/4 288/7/4 310/7/4
f 310/4/4 301/4/4 311/4/4
f 301/7/4 302/7/4 312/7/4
f 311/4/4 301/4/4 312/4/4
f 302/5/4 303/5/4 313/5/4
f 312/7/4 302/7/4 313/7/4
f 307/4/4 308/4/4 314/4/4
f 308/4/4 309/4/4 314/4/4
f 314/4/4 309/4/4 315/4/4
f 310/7/4 311/7/4 316/7/4
f 315/4/4 309/4/4 316/4/4
f 309/7/4 310/7/4 316/7/4
f 311/4/4 312/4/4 317/4/4
f 316/7/4 311/7/4 317/7/4
f 312/5/4 313/5/4 318/5/4
f 317/4/4 312/4/4 318/4/4
f 303/4/4 272/4/4 319/4/4
f 318/5/4 313/5/4 319/5/4
f 313/5/4 303/5/4 319/5/4
f 317/4/4 318/4/4 320/4/4
f 315/4/4 316/4/4 320/4/4
f 318/4/4 319/4/4 320/4/4
f 316/4/4 317/4/4 320/4/4
f 320/4/4 319/4/4 321/4/4
f 321/4/4 319/4/4 322/4/4
f 319/4/4 272/4/4 323/4/4
f 322/4/4 319/4/4 323/4/4
f 273/5/4 274/5/4 324/5/4
f 274/6/4 275/6/4 325/6/4
f 324/5/4 274/5/4 325/5/4
f 325/6/4 275/6/4 326/6/4
f 327/6/4 328/6/4 329/6/4
f 329/6/4 328/6/4 330/6/4
f 331/6/4 332/6/4 333/6/4
f 333/6/4 332/6/4 334/6/4
f 335/6/4 336/6/4 337/6/4
f 337/6/4 336/6/4 338/6/4
f 341/4/5 340/4/5 339/4/5
f 342/4/5 340/4/5 341/4/5
f 347/4/5 344/4/5 343/4/5
f 348/4/5 344/4/5 347/4/5
f 349/4/5 346/4/5 345/4/5
f 350/4/5 346/4/5 349/4/5
f 357/4/5 352/4/5 351/4/5
f 358/4/5 352/4/5 357/4/5
f 359/4/5 356/4/5 355/4/5
f 360/4/5 356/4/5 359/4/5
f 361/4/5 354/4/5 353/4/5
f 362/4/5 354/4/5 361/4/5
f 366/4/5 364/4/5 363/4/5
f 367/4/5 364/4/5 366/4/5
f 370/4/5 366/4/5 365/4/5
f 371/4/5 366/4/5 370/4/5
f 372/4/5 368/4/5 367/4/5
f 373/4/5 368/4/5 372/4/5
f 375/4/5 370/4/5 369/4/5
f 376/4/5 370/4/5 375/4/5
f 377/4/5 374/4/5 373/4/5
f 378/4/5 374/4/5 377/4/5
f 384/4/5 380/4/5 379/4/5
f 385/4/5 380/4/5 384/4/5
f 386/4/5 382/4/5 381/4/5
f 387/4/5 382/4/5 386/4/5
f 389/4/5 384/4/5 383/4/5
f 390/4/5 384/4/5 389/4/5
f 391/4/5 388/4/5 387/4/5
f 392/4/5 388/4/5 391/4/5
f 393/4/5 389/4/5 383/4/5
f 394/4/5 389/4/5 393/4/5
f 395/4/5 388/4/5 392/4/5
f 396/4/5 388/4/5 395/4/5
f 401/4/5 398/4/5 397/4/5
f 402/4/5 398/4/5 401/4/5
f 403/4/5 400/4/5 399/4/5
f 404/4/5 400/4/5 403/4/5
f 409/4/5 406/4/5 405/4/5
f 410/4/5 406/4/5 409/4/5
f 411/4/5 408/4/5 407/4/5
f 412/4/5 408/4/5 411/4/5
f 417/4/5 414/4/5 413/4/5
f 418/4/5 414/4/5 417/4/5
f 419/4/5 416/4/5 415/4/5
f 420/4/5 416/4/5 419/4/5
f 425/4/5 422/4/5 421/4/5
f 426/4/5 422/4/5 425/4/5
f 427/4/5 424/4/5 423/4/5
f 428/4/5 424/4/5 427/4/5
f 429/4/5 425/4/5 421/4/5
f 432/4/5 424/4/5 428/4/5
f 433/4/5 430/4/5 429/4/5
f 433/4/5 429/4/5 421/4/5
f 434/4/5 430/4/5 433/4/5
f 435/4/5 432/4/5 431/4/5
f 436/4/5 424/4/5 432/4/5
f 436/4/5 432/4/5 435/4/5
f 440/6/5 438/6/5 437/6/5
f 441/6/5 438/6/5 440/6/5
f 443/6/5 440/6/5 439/6/5
f 443/6/5 442/6/5 441/6/5
f 443/6/5 441/6/5 440/6/5
f 444/6/5 442/6/5 443/6/5
f 445/6/5 443/6/5 439/6/5
f 446/6/5 442/6/5 444/6/5
f 447/6/5 445/6/5 439/6/5
f 447/6/5 446/6/5 445/6/5
f 448/6/5 446/6/5 447/6/5
f 449/6/5 442/6/5 446/6/5
f 449/6/5 446/6/5 448/6/5
f 450/6/5 442/6/5 449/6/5
f 451/6/5 449/6/5 448/6/5
f 452/6/5 449/6/5 451/6/5
f 453/4/6 454/4/6 457/4/6
f 457/4/6 454/4/6 458/4/6
f 455/4/6 456/4/6 459/4/6
f 459/4/6 456/4/6 460/4/6
f 461/6/6 462/6/6 464/6/6
f 464/6/6 462/6/6 465/6/6
f 463/6/6 464/6/6 467/6/6
f 465/6/6 466/6/6 467/6/6
f 464/6/6 465/6/6 467/6/6
f 467/6/6 466/6/6 468/6/6
f 463/6/6 467/6/6 469/6/6
f 468/6/6 466/6/6 470/6/6
f 463/6/6 469/6/6 471/6/6
f 469/6/6 470/6/6 471/6/6
f 471/6/6 470/6/6 472/6/6
f 470/6/6 466/6/6 473/6/6
f 472/6/6 470/6/6 473/6/6
f 473/6/6 466/6/6 474/6/6
f 472/6/6 473/6/6 475/6/6
f 475/6/6 473/6/6 476/6/6
f 477/6/6 478/6/6 479/6/6
f 479/6/6 478/6/6 480/6/6
f 477/6/6 479/6/6 481/6/6
f 480/6/6 478/6/6 482/6/6
f 477/6/6 481/6/6 483/6/6
f 481/6/6 482/6/6 483/6/6
f 482/6/6 478/6/6 484/6/6
f 483/6/6 482/6/6 484/6/6
f 485/6/6 486/6/6 487/6/6
f 487/6/6 486/6/6 488/6/6
