# MagicaVoxel @ Ephtracy

# group
o 

# material
mtllib CharacterHeadGuard4Shader.mtl
usemtl palette

# normals
vn -1 0 0
vn 1 0 0
vn 0 0 1
vn 0 0 -1
vn 0 -1 0
vn 0 1 0

# texcoords
vt 0.369141 0.5
vt 0.865234 0.5
vt 0.884766 0.5
vt 0.970703 0.5
vt 0.982422 0.5
vt 0.994141 0.5

# verts
v 1.2 4.4 -1.9
v 1.2 4.4 -2.1
v 1.2 4.6 -1.9
v 1.2 4.6 -2.1
v 1.3 3.8 -1.6
v 1.3 3.8 -2.4
v 1.3 4.2 -1.9
v 1.3 4.2 -2.1
v 1.3 4.3 -1.8
v 1.3 4.3 -1.9
v 1.3 4.3 -2
v 1.3 4.3 -2.1
v 1.3 4.3 -2.2
v 1.3 4.4 -1.9
v 1.3 4.4 -2
v 1.3 4.6 -1.8
v 1.3 4.6 -1.9
v 1.3 4.6 -2.1
v 1.3 4.6 -2.2
v 1.3 4.7 -1.9
v 1.3 4.7 -2.1
v 1.3 4.8 -1.5
v 1.3 4.8 -1.6
v 1.3 4.8 -2.4
v 1.3 4.8 -2.5
v 1.3 5.2 -1.5
v 1.3 5.2 -2.5
v 1.4 3.7 -1.6
v 1.4 3.7 -2.4
v 1.4 3.8 -1.5
v 1.4 3.8 -1.6
v 1.4 3.8 -2.4
v 1.4 3.8 -2.5
v 1.4 4.2 -1.9
v 1.4 4.2 -2.1
v 1.4 4.3 -1.8
v 1.4 4.3 -1.9
v 1.4 4.3 -2
v 1.4 4.3 -2.1
v 1.4 4.3 -2.2
v 1.4 4.4 -2
v 1.4 4.4 -2.1
v 1.4 4.6 -1.8
v 1.4 4.6 -1.9
v 1.4 4.6 -2.1
v 1.4 4.6 -2.2
v 1.4 4.7 -1.9
v 1.4 4.7 -2.1
v 1.4 4.8 -1.5
v 1.4 4.8 -1.6
v 1.4 4.8 -2.4
v 1.4 4.8 -2.5
v 1.4 5.2 -1.6
v 1.4 5.2 -2.4
v 1.4 5.3 -1.6
v 1.4 5.3 -2.4
v 1.7 3.4 -1.7
v 1.7 3.4 -2.3
v 1.7 3.8 -1.7
v 1.7 3.8 -2.3
v 1.8 3.7 -2.3
v 1.8 3.7 -2.4
v 1.8 3.8 -2.3
v 1.8 3.8 -2.4
v 1.9 4.2 -2.4
v 1.9 4.2 -2.5
v 1.9 4.4 -2.3
v 1.9 4.4 -2.4
v 1.9 4.6 -2.3
v 1.9 4.7 -2.3
v 1.9 4.7 -2.4
v 1.9 4.9 -2.4
v 1.9 4.9 -2.5
v 2.3 3.8 -2.4
v 2.3 3.8 -2.5
v 2.3 4 -2.4
v 2.3 4 -2.5
v 2.4 4 -2.4
v 2.4 4 -2.5
v 2.4 4.1 -2.4
v 2.4 4.1 -2.5
v 2.4 4.4 -2.3
v 2.4 4.4 -2.4
v 2.4 4.6 -2.3
v 2.4 4.7 -2.3
v 2.4 4.7 -2.4
v 2.4 4.8 -2.4
v 2.4 4.8 -2.5
v 2.4 4.9 -2.4
v 2.4 4.9 -2.5
v 2.5 3.7 -1.6
v 2.5 3.7 -2.4
v 2.5 3.8 -1.6
v 2.5 3.8 -2.4
v 2.5 4.1 -2.4
v 2.5 4.1 -2.5
v 2.5 4.8 -2.4
v 2.5 4.8 -2.5
v 1.5 3.7 -1.6
v 1.5 3.7 -2.4
v 1.5 3.8 -1.6
v 1.5 3.8 -2.4
v 1.5 4.1 -2.4
v 1.5 4.1 -2.5
v 1.5 4.8 -2.4
v 1.5 4.8 -2.5
v 1.6 4 -2.4
v 1.6 4 -2.5
v 1.6 4.1 -2.4
v 1.6 4.1 -2.5
v 1.6 4.4 -2.3
v 1.6 4.4 -2.4
v 1.6 4.6 -2.3
v 1.6 4.7 -2.3
v 1.6 4.7 -2.4
v 1.6 4.8 -2.4
v 1.6 4.8 -2.5
v 1.6 4.9 -2.4
v 1.6 4.9 -2.5
v 1.7 3.8 -2.4
v 1.7 3.8 -2.5
v 1.7 4 -2.4
v 1.7 4 -2.5
v 2.1 4.2 -2.4
v 2.1 4.2 -2.5
v 2.1 4.4 -2.3
v 2.1 4.4 -2.4
v 2.1 4.6 -2.3
v 2.1 4.7 -2.3
v 2.1 4.7 -2.4
v 2.1 4.9 -2.4
v 2.1 4.9 -2.5
v 2.2 3.7 -2.3
v 2.2 3.7 -2.4
v 2.2 3.8 -2.3
v 2.2 3.8 -2.4
v 2.3 3.4 -1.7
v 2.3 3.4 -2.3
v 2.3 3.8 -1.7
v 2.3 3.8 -2.3
v 2.6 3.7 -1.6
v 2.6 3.7 -2.4
v 2.6 3.8 -1.5
v 2.6 3.8 -1.6
v 2.6 3.8 -2.4
v 2.6 3.8 -2.5
v 2.6 4.2 -1.9
v 2.6 4.2 -2.1
v 2.6 4.3 -1.8
v 2.6 4.3 -1.9
v 2.6 4.3 -2
v 2.6 4.3 -2.1
v 2.6 4.3 -2.2
v 2.6 4.4 -2
v 2.6 4.4 -2.1
v 2.6 4.6 -1.8
v 2.6 4.6 -1.9
v 2.6 4.6 -2.1
v 2.6 4.6 -2.2
v 2.6 4.7 -1.9
v 2.6 4.7 -2.1
v 2.6 4.8 -1.5
v 2.6 4.8 -1.6
v 2.6 4.8 -2.4
v 2.6 4.8 -2.5
v 2.6 5.2 -1.6
v 2.6 5.2 -2.4
v 2.6 5.3 -1.6
v 2.6 5.3 -2.4
v 2.7 3.8 -1.6
v 2.7 3.8 -2.4
v 2.7 4.2 -1.9
v 2.7 4.2 -2.1
v 2.7 4.3 -1.8
v 2.7 4.3 -1.9
v 2.7 4.3 -2
v 2.7 4.3 -2.1
v 2.7 4.3 -2.2
v 2.7 4.4 -1.9
v 2.7 4.4 -2
v 2.7 4.6 -1.8
v 2.7 4.6 -1.9
v 2.7 4.6 -2.1
v 2.7 4.6 -2.2
v 2.7 4.7 -1.9
v 2.7 4.7 -2.1
v 2.7 4.8 -1.5
v 2.7 4.8 -1.6
v 2.7 4.8 -2.4
v 2.7 4.8 -2.5
v 2.7 5.2 -1.5
v 2.7 5.2 -2.5
v 2.8 4.4 -1.9
v 2.8 4.4 -2.1
v 2.8 4.6 -1.9
v 2.8 4.6 -2.1
v 1.3 4.8 -1.5
v 1.3 5.2 -1.5
v 1.4 3.8 -1.5
v 1.4 4.8 -1.5
v 2.6 3.8 -1.5
v 2.6 4.8 -1.5
v 2.7 4.8 -1.5
v 2.7 5.2 -1.5
v 1.3 3.8 -1.6
v 1.3 4.8 -1.6
v 1.4 3.7 -1.6
v 1.4 3.8 -1.6
v 1.4 4.8 -1.6
v 1.4 5.2 -1.6
v 1.4 5.3 -1.6
v 1.5 3.7 -1.6
v 1.5 3.8 -1.6
v 2.5 3.7 -1.6
v 2.5 3.8 -1.6
v 2.6 3.7 -1.6
v 2.6 3.8 -1.6
v 2.6 4.8 -1.6
v 2.6 5.2 -1.6
v 2.6 5.3 -1.6
v 2.7 3.8 -1.6
v 2.7 4.8 -1.6
v 1.7 3.4 -1.7
v 1.7 3.8 -1.7
v 2.3 3.4 -1.7
v 2.3 3.8 -1.7
v 1.2 4.4 -1.9
v 1.2 4.6 -1.9
v 1.3 4.3 -1.9
v 1.3 4.4 -1.9
v 1.3 4.6 -1.9
v 1.4 4.3 -1.9
v 1.4 4.6 -1.9
v 2.6 4.3 -1.9
v 2.6 4.6 -1.9
v 2.7 4.3 -1.9
v 2.7 4.4 -1.9
v 2.7 4.6 -1.9
v 2.8 4.4 -1.9
v 2.8 4.6 -1.9
v 1.3 4.2 -2.1
v 1.3 4.3 -2.1
v 1.3 4.6 -2.1
v 1.3 4.7 -2.1
v 1.4 4.2 -2.1
v 1.4 4.3 -2.1
v 1.4 4.6 -2.1
v 1.4 4.7 -2.1
v 2.6 4.2 -2.1
v 2.6 4.3 -2.1
v 2.6 4.6 -2.1
v 2.6 4.7 -2.1
v 2.7 4.2 -2.1
v 2.7 4.3 -2.1
v 2.7 4.6 -2.1
v 2.7 4.7 -2.1
v 1.3 4.3 -2.2
v 1.3 4.6 -2.2
v 1.4 4.3 -2.2
v 1.4 4.6 -2.2
v 2.6 4.3 -2.2
v 2.6 4.6 -2.2
v 2.7 4.3 -2.2
v 2.7 4.6 -2.2
v 1.3 4.3 -1.8
v 1.3 4.6 -1.8
v 1.4 4.3 -1.8
v 1.4 4.6 -1.8
v 2.6 4.3 -1.8
v 2.6 4.6 -1.8
v 2.7 4.3 -1.8
v 2.7 4.6 -1.8
v 1.3 4.2 -1.9
v 1.3 4.3 -1.9
v 1.3 4.6 -1.9
v 1.3 4.7 -1.9
v 1.4 4.2 -1.9
v 1.4 4.3 -1.9
v 1.4 4.6 -1.9
v 1.4 4.7 -1.9
v 2.6 4.2 -1.9
v 2.6 4.3 -1.9
v 2.6 4.6 -1.9
v 2.6 4.7 -1.9
v 2.7 4.2 -1.9
v 2.7 4.3 -1.9
v 2.7 4.6 -1.9
v 2.7 4.7 -1.9
v 1.3 4.3 -2
v 1.3 4.4 -2
v 1.4 4.3 -2
v 1.4 4.4 -2
v 2.6 4.3 -2
v 2.6 4.4 -2
v 2.7 4.3 -2
v 2.7 4.4 -2
v 1.2 4.4 -2.1
v 1.2 4.6 -2.1
v 1.3 4.6 -2.1
v 1.4 4.4 -2.1
v 1.4 4.6 -2.1
v 2.6 4.4 -2.1
v 2.6 4.6 -2.1
v 2.7 4.6 -2.1
v 2.8 4.4 -2.1
v 2.8 4.6 -2.1
v 1.6 4.4 -2.3
v 1.6 4.6 -2.3
v 1.6 4.7 -2.3
v 1.7 3.4 -2.3
v 1.7 3.8 -2.3
v 1.7 4.5 -2.3
v 1.7 4.6 -2.3
v 1.8 3.7 -2.3
v 1.8 3.8 -2.3
v 1.8 4.5 -2.3
v 1.8 4.6 -2.3
v 1.9 4.4 -2.3
v 1.9 4.6 -2.3
v 1.9 4.7 -2.3
v 2.1 4.4 -2.3
v 2.1 4.6 -2.3
v 2.1 4.7 -2.3
v 2.2 3.7 -2.3
v 2.2 3.8 -2.3
v 2.2 4.5 -2.3
v 2.2 4.6 -2.3
v 2.3 3.4 -2.3
v 2.3 3.8 -2.3
v 2.3 4.5 -2.3
v 2.3 4.6 -2.3
v 2.4 4.4 -2.3
v 2.4 4.6 -2.3
v 2.4 4.7 -2.3
v 1.3 3.8 -2.4
v 1.3 4.8 -2.4
v 1.4 3.7 -2.4
v 1.4 3.8 -2.4
v 1.4 4.8 -2.4
v 1.4 5.2 -2.4
v 1.4 5.3 -2.4
v 1.5 3.7 -2.4
v 1.5 3.8 -2.4
v 1.5 4.1 -2.4
v 1.5 4.8 -2.4
v 1.6 4 -2.4
v 1.6 4.1 -2.4
v 1.6 4.4 -2.4
v 1.6 4.7 -2.4
v 1.6 4.8 -2.4
v 1.6 4.9 -2.4
v 1.7 3.8 -2.4
v 1.7 4 -2.4
v 1.7 4.1 -2.4
v 1.8 3.7 -2.4
v 1.8 3.8 -2.4
v 1.9 4.2 -2.4
v 1.9 4.4 -2.4
v 1.9 4.7 -2.4
v 1.9 4.9 -2.4
v 2.1 4.2 -2.4
v 2.1 4.4 -2.4
v 2.1 4.7 -2.4
v 2.1 4.9 -2.4
v 2.2 3.7 -2.4
v 2.2 3.8 -2.4
v 2.3 3.8 -2.4
v 2.3 4 -2.4
v 2.3 4.1 -2.4
v 2.4 4 -2.4
v 2.4 4.1 -2.4
v 2.4 4.4 -2.4
v 2.4 4.7 -2.4
v 2.4 4.8 -2.4
v 2.4 4.9 -2.4
v 2.5 3.7 -2.4
v 2.5 3.8 -2.4
v 2.5 4.1 -2.4
v 2.5 4.8 -2.4
v 2.6 3.7 -2.4
v 2.6 3.8 -2.4
v 2.6 4.8 -2.4
v 2.6 5.2 -2.4
v 2.6 5.3 -2.4
v 2.7 3.8 -2.4
v 2.7 4.8 -2.4
v 1.3 4.8 -2.5
v 1.3 5.2 -2.5
v 1.4 3.8 -2.5
v 1.4 4.8 -2.5
v 1.5 4.1 -2.5
v 1.5 4.8 -2.5
v 1.6 4 -2.5
v 1.6 4.1 -2.5
v 1.6 4.8 -2.5
v 1.6 4.9 -2.5
v 1.7 3.8 -2.5
v 1.7 4 -2.5
v 1.9 4.2 -2.5
v 1.9 4.9 -2.5
v 2.1 4.2 -2.5
v 2.1 4.9 -2.5
v 2.3 3.8 -2.5
v 2.3 4 -2.5
v 2.4 4 -2.5
v 2.4 4.1 -2.5
v 2.4 4.8 -2.5
v 2.4 4.9 -2.5
v 2.5 4.1 -2.5
v 2.5 4.8 -2.5
v 2.6 3.8 -2.5
v 2.6 4.8 -2.5
v 2.7 4.8 -2.5
v 2.7 5.2 -2.5
v 1.7 3.4 -1.7
v 2.3 3.4 -1.7
v 1.7 3.4 -2.3
v 2.3 3.4 -2.3
v 1.4 3.7 -1.6
v 1.5 3.7 -1.6
v 2.5 3.7 -1.6
v 2.6 3.7 -1.6
v 1.8 3.7 -2.3
v 2.2 3.7 -2.3
v 1.4 3.7 -2.4
v 1.5 3.7 -2.4
v 1.8 3.7 -2.4
v 2.2 3.7 -2.4
v 2.5 3.7 -2.4
v 2.6 3.7 -2.4
v 1.4 3.8 -1.5
v 2.6 3.8 -1.5
v 1.3 3.8 -1.6
v 1.4 3.8 -1.6
v 1.5 3.8 -1.6
v 2.5 3.8 -1.6
v 2.6 3.8 -1.6
v 2.7 3.8 -1.6
v 1.7 3.8 -1.7
v 2.3 3.8 -1.7
v 1.7 3.8 -2.3
v 1.8 3.8 -2.3
v 2.2 3.8 -2.3
v 2.3 3.8 -2.3
v 1.3 3.8 -2.4
v 1.4 3.8 -2.4
v 1.5 3.8 -2.4
v 1.7 3.8 -2.4
v 1.8 3.8 -2.4
v 2.2 3.8 -2.4
v 2.3 3.8 -2.4
v 2.5 3.8 -2.4
v 2.6 3.8 -2.4
v 2.7 3.8 -2.4
v 1.4 3.8 -2.5
v 1.7 3.8 -2.5
v 2.3 3.8 -2.5
v 2.6 3.8 -2.5
v 1.9 4.2 -2.4
v 2.1 4.2 -2.4
v 1.9 4.2 -2.5
v 2.1 4.2 -2.5
v 1.3 4.3 -1.9
v 1.4 4.3 -1.9
v 2.6 4.3 -1.9
v 2.7 4.3 -1.9
v 1.3 4.3 -2
v 1.4 4.3 -2
v 2.6 4.3 -2
v 2.7 4.3 -2
v 1.2 4.4 -1.9
v 1.3 4.4 -1.9
v 2.7 4.4 -1.9
v 2.8 4.4 -1.9
v 1.3 4.4 -2
v 1.4 4.4 -2
v 2.6 4.4 -2
v 2.7 4.4 -2
v 1.2 4.4 -2.1
v 1.4 4.4 -2.1
v 2.6 4.4 -2.1
v 2.8 4.4 -2.1
v 1.3 4.6 -1.8
v 1.4 4.6 -1.8
v 2.6 4.6 -1.8
v 2.7 4.6 -1.8
v 1.3 4.6 -1.9
v 1.4 4.6 -1.9
v 2.6 4.6 -1.9
v 2.7 4.6 -1.9
v 1.3 4.6 -2.1
v 1.4 4.6 -2.1
v 2.6 4.6 -2.1
v 2.7 4.6 -2.1
v 1.3 4.6 -2.2
v 1.4 4.6 -2.2
v 2.6 4.6 -2.2
v 2.7 4.6 -2.2
v 1.3 4.7 -1.9
v 1.4 4.7 -1.9
v 2.6 4.7 -1.9
v 2.7 4.7 -1.9
v 1.3 4.7 -2.1
v 1.4 4.7 -2.1
v 2.6 4.7 -2.1
v 2.7 4.7 -2.1
v 1.6 4.7 -2.3
v 1.9 4.7 -2.3
v 2.1 4.7 -2.3
v 2.4 4.7 -2.3
v 1.6 4.7 -2.4
v 1.9 4.7 -2.4
v 2.1 4.7 -2.4
v 2.4 4.7 -2.4
v 1.3 4.8 -1.5
v 1.4 4.8 -1.5
v 2.6 4.8 -1.5
v 2.7 4.8 -1.5
v 1.3 4.8 -1.6
v 1.4 4.8 -1.6
v 2.6 4.8 -1.6
v 2.7 4.8 -1.6
v 1.3 4.8 -2.4
v 1.4 4.8 -2.4
v 1.5 4.8 -2.4
v 1.6 4.8 -2.4
v 2.4 4.8 -2.4
v 2.5 4.8 -2.4
v 2.6 4.8 -2.4
v 2.7 4.8 -2.4
v 1.3 4.8 -2.5
v 1.4 4.8 -2.5
v 1.5 4.8 -2.5
v 1.6 4.8 -2.5
v 2.4 4.8 -2.5
v 2.5 4.8 -2.5
v 2.6 4.8 -2.5
v 2.7 4.8 -2.5
v 1.6 4.9 -2.4
v 1.9 4.9 -2.4
v 2.1 4.9 -2.4
v 2.4 4.9 -2.4
v 1.6 4.9 -2.5
v 1.9 4.9 -2.5
v 2.1 4.9 -2.5
v 2.4 4.9 -2.5
v 1.6 4 -2.4
v 1.7 4 -2.4
v 2.3 4 -2.4
v 2.4 4 -2.4
v 1.6 4 -2.5
v 1.7 4 -2.5
v 2.3 4 -2.5
v 2.4 4 -2.5
v 1.5 4.1 -2.4
v 1.6 4.1 -2.4
v 2.4 4.1 -2.4
v 2.5 4.1 -2.4
v 1.5 4.1 -2.5
v 1.6 4.1 -2.5
v 2.4 4.1 -2.5
v 2.5 4.1 -2.5
v 1.3 4.2 -1.9
v 1.4 4.2 -1.9
v 2.6 4.2 -1.9
v 2.7 4.2 -1.9
v 1.3 4.2 -2.1
v 1.4 4.2 -2.1
v 2.6 4.2 -2.1
v 2.7 4.2 -2.1
v 1.3 4.3 -1.8
v 1.4 4.3 -1.8
v 2.6 4.3 -1.8
v 2.7 4.3 -1.8
v 1.3 4.3 -1.9
v 1.4 4.3 -1.9
v 2.6 4.3 -1.9
v 2.7 4.3 -1.9
v 1.3 4.3 -2.1
v 1.4 4.3 -2.1
v 2.6 4.3 -2.1
v 2.7 4.3 -2.1
v 1.3 4.3 -2.2
v 1.4 4.3 -2.2
v 2.6 4.3 -2.2
v 2.7 4.3 -2.2
v 1.6 4.4 -2.3
v 1.9 4.4 -2.3
v 2.1 4.4 -2.3
v 2.4 4.4 -2.3
v 1.6 4.4 -2.4
v 1.9 4.4 -2.4
v 2.1 4.4 -2.4
v 2.4 4.4 -2.4
v 1.2 4.6 -1.9
v 1.3 4.6 -1.9
v 1.4 4.6 -1.9
v 2.6 4.6 -1.9
v 2.7 4.6 -1.9
v 2.8 4.6 -1.9
v 1.2 4.6 -2.1
v 1.3 4.6 -2.1
v 1.4 4.6 -2.1
v 2.6 4.6 -2.1
v 2.7 4.6 -2.1
v 2.8 4.6 -2.1
v 1.3 5.2 -1.5
v 2.7 5.2 -1.5
v 1.4 5.2 -1.6
v 2.6 5.2 -1.6
v 1.4 5.2 -2.4
v 2.6 5.2 -2.4
v 1.3 5.2 -2.5
v 2.7 5.2 -2.5
v 1.4 5.3 -1.6
v 2.6 5.3 -1.6
v 1.4 5.3 -2.4
v 2.6 5.3 -2.4

# faces
f 3/3/1 2/3/1 1/3/1
f 4/3/1 2/3/1 3/3/1
f 7/5/1 6/5/1 5/5/1
f 8/5/1 6/5/1 7/5/1
f 9/5/1 7/5/1 5/5/1
f 10/5/1 7/5/1 9/5/1
f 12/5/1 6/5/1 8/5/1
f 13/5/1 6/5/1 12/5/1
f 14/3/1 11/3/1 10/3/1
f 15/3/1 11/3/1 14/3/1
f 16/5/1 9/5/1 5/5/1
f 19/5/1 6/5/1 13/5/1
f 20/5/1 17/5/1 16/5/1
f 21/5/1 19/5/1 18/5/1
f 23/5/1 16/5/1 5/5/1
f 23/5/1 21/5/1 20/5/1
f 23/5/1 20/5/1 16/5/1
f 24/5/1 19/5/1 21/5/1
f 24/5/1 6/5/1 19/5/1
f 24/5/1 21/5/1 23/5/1
f 26/5/1 23/5/1 22/5/1
f 26/5/1 25/5/1 24/5/1
f 26/5/1 24/5/1 23/5/1
f 27/5/1 25/5/1 26/5/1
f 31/5/1 29/5/1 28/5/1
f 32/5/1 29/5/1 31/5/1
f 37/3/1 35/3/1 34/3/1
f 38/3/1 35/3/1 37/3/1
f 39/3/1 35/3/1 38/3/1
f 41/3/1 40/3/1 39/3/1
f 41/3/1 39/3/1 38/3/1
f 42/3/1 40/3/1 41/3/1
f 43/3/1 37/3/1 36/3/1
f 44/3/1 37/3/1 43/3/1
f 45/3/1 40/3/1 42/3/1
f 46/3/1 40/3/1 45/3/1
f 47/3/1 45/3/1 44/3/1
f 48/3/1 45/3/1 47/3/1
f 49/5/1 31/5/1 30/5/1
f 50/5/1 31/5/1 49/5/1
f 51/5/1 33/5/1 32/5/1
f 52/5/1 33/5/1 51/5/1
f 55/5/1 54/5/1 53/5/1
f 56/5/1 54/5/1 55/5/1
f 59/3/1 58/3/1 57/3/1
f 60/3/1 58/3/1 59/3/1
f 63/3/1 62/3/1 61/3/1
f 64/3/1 62/3/1 63/3/1
f 68/5/1 66/5/1 65/5/1
f 69/3/1 68/3/1 67/3/1
f 70/3/1 68/3/1 69/3/1
f 71/5/1 66/5/1 68/5/1
f 71/3/1 68/3/1 70/3/1
f 72/5/1 66/5/1 71/5/1
f 73/5/1 66/5/1 72/5/1
f 76/5/1 75/5/1 74/5/1
f 77/5/1 75/5/1 76/5/1
f 80/5/1 79/5/1 78/5/1
f 81/5/1 79/5/1 80/5/1
f 84/3/1 83/3/1 82/3/1
f 85/3/1 83/3/1 84/3/1
f 86/3/1 83/3/1 85/3/1
f 89/5/1 88/5/1 87/5/1
f 90/5/1 88/5/1 89/5/1
f 93/5/1 92/5/1 91/5/1
f 94/5/1 92/5/1 93/5/1
f 97/5/1 96/5/1 95/5/1
f 98/5/1 96/5/1 97/5/1
f 99/5/2 100/5/2 101/5/2
f 101/5/2 100/5/2 102/5/2
f 103/5/2 104/5/2 105/5/2
f 105/5/2 104/5/2 106/5/2
f 107/5/2 108/5/2 109/5/2
f 109/5/2 108/5/2 110/5/2
f 111/3/2 112/3/2 113/3/2
f 113/3/2 112/3/2 114/3/2
f 114/3/2 112/3/2 115/3/2
f 116/5/2 117/5/2 118/5/2
f 118/5/2 117/5/2 119/5/2
f 120/5/2 121/5/2 122/5/2
f 122/5/2 121/5/2 123/5/2
f 124/5/2 125/5/2 127/5/2
f 126/3/2 127/3/2 128/3/2
f 128/3/2 127/3/2 129/3/2
f 127/5/2 125/5/2 130/5/2
f 129/3/2 127/3/2 130/3/2
f 130/5/2 125/5/2 131/5/2
f 131/5/2 125/5/2 132/5/2
f 133/3/2 134/3/2 135/3/2
f 135/3/2 134/3/2 136/3/2
f 137/3/2 138/3/2 139/3/2
f 139/3/2 138/3/2 140/3/2
f 141/5/2 142/5/2 144/5/2
f 144/5/2 142/5/2 145/5/2
f 147/3/2 148/3/2 150/3/2
f 150/3/2 148/3/2 151/3/2
f 151/3/2 148/3/2 152/3/2
f 152/3/2 153/3/2 154/3/2
f 151/3/2 152/3/2 154/3/2
f 154/3/2 153/3/2 155/3/2
f 149/3/2 150/3/2 156/3/2
f 156/3/2 150/3/2 157/3/2
f 155/3/2 153/3/2 158/3/2
f 158/3/2 153/3/2 159/3/2
f 157/3/2 158/3/2 160/3/2
f 160/3/2 158/3/2 161/3/2
f 143/5/2 144/5/2 162/5/2
f 162/5/2 144/5/2 163/5/2
f 145/5/2 146/5/2 164/5/2
f 164/5/2 146/5/2 165/5/2
f 166/5/2 167/5/2 168/5/2
f 168/5/2 167/5/2 169/5/2
f 170/5/2 171/5/2 172/5/2
f 172/5/2 171/5/2 173/5/2
f 170/5/2 172/5/2 174/5/2
f 174/5/2 172/5/2 175/5/2
f 173/5/2 171/5/2 177/5/2
f 177/5/2 171/5/2 178/5/2
f 175/3/2 176/3/2 179/3/2
f 179/3/2 176/3/2 180/3/2
f 170/5/2 174/5/2 181/5/2
f 178/5/2 171/5/2 184/5/2
f 181/5/2 182/5/2 185/5/2
f 183/5/2 184/5/2 186/5/2
f 170/5/2 181/5/2 188/5/2
f 185/5/2 186/5/2 188/5/2
f 181/5/2 185/5/2 188/5/2
f 186/5/2 184/5/2 189/5/2
f 184/5/2 171/5/2 189/5/2
f 188/5/2 186/5/2 189/5/2
f 187/5/2 188/5/2 191/5/2
f 189/5/2 190/5/2 191/5/2
f 188/5/2 189/5/2 191/5/2
f 191/5/2 190/5/2 192/5/2
f 193/3/2 194/3/2 195/3/2
f 195/3/2 194/3/2 196/3/2
f 200/5/3 198/5/3 197/5/3
f 201/5/3 200/5/3 199/5/3
f 202/5/3 198/5/3 200/5/3
f 202/5/3 200/5/3 201/5/3
f 203/5/3 198/5/3 202/5/3
f 204/5/3 198/5/3 203/5/3
f 208/5/3 206/5/3 205/5/3
f 209/5/3 206/5/3 208/5/3
f 212/5/3 208/5/3 207/5/3
f 213/5/3 208/5/3 212/5/3
f 216/5/3 215/5/3 214/5/3
f 217/5/3 215/5/3 216/5/3
f 219/5/3 211/5/3 210/5/3
f 220/5/3 211/5/3 219/5/3
f 221/5/3 218/5/3 217/5/3
f 222/5/3 218/5/3 221/5/3
f 225/3/3 224/3/3 223/3/3
f 226/3/3 224/3/3 225/3/3
f 230/3/3 228/3/3 227/3/3
f 231/3/3 228/3/3 230/3/3
f 232/3/3 230/3/3 229/3/3
f 232/3/3 231/3/3 230/3/3
f 233/3/3 231/3/3 232/3/3
f 236/3/3 235/3/3 234/3/3
f 237/3/3 235/3/3 236/3/3
f 238/3/3 235/3/3 237/3/3
f 239/3/3 238/3/3 237/3/3
f 240/3/3 238/3/3 239/3/3
f 245/5/3 242/5/3 241/5/3
f 246/5/3 242/5/3 245/5/3
f 247/5/3 244/5/3 243/5/3
f 248/5/3 244/5/3 247/5/3
f 253/5/3 250/5/3 249/5/3
f 254/5/3 250/5/3 253/5/3
f 255/5/3 252/5/3 251/5/3
f 256/5/3 252/5/3 255/5/3
f 259/5/3 258/5/3 257/5/3
f 260/5/3 258/5/3 259/5/3
f 263/5/3 262/5/3 261/5/3
f 264/5/3 262/5/3 263/5/3
f 265/5/4 266/5/4 267/5/4
f 267/5/4 266/5/4 268/5/4
f 269/5/4 270/5/4 271/5/4
f 271/5/4 270/5/4 272/5/4
f 273/5/4 274/5/4 277/5/4
f 277/5/4 274/5/4 278/5/4
f 275/5/4 276/5/4 279/5/4
f 279/5/4 276/5/4 280/5/4
f 281/5/4 282/5/4 285/5/4
f 285/5/4 282/5/4 286/5/4
f 283/5/4 284/5/4 287/5/4
f 287/5/4 284/5/4 288/5/4
f 289/3/4 290/3/4 291/3/4
f 291/3/4 290/3/4 292/3/4
f 293/3/4 294/3/4 295/3/4
f 295/3/4 294/3/4 296/3/4
f 297/3/4 298/3/4 299/3/4
f 297/3/4 299/3/4 300/3/4
f 300/3/4 299/3/4 301/3/4
f 302/3/4 303/3/4 304/3/4
f 302/3/4 304/3/4 305/3/4
f 305/3/4 304/3/4 306/3/4
f 307/4/4 308/4/4 312/4/4
f 308/3/4 309/3/4 313/3/4
f 312/4/4 308/4/4 313/4/4
f 310/3/4 311/3/4 314/3/4
f 314/3/4 311/3/4 315/3/4
f 307/4/4 312/4/4 316/4/4
f 312/6/4 313/6/4 316/6/4
f 313/3/4 309/3/4 317/3/4
f 316/6/4 313/6/4 317/6/4
f 307/4/4 316/4/4 318/4/4
f 316/4/4 317/4/4 318/4/4
f 317/3/4 309/3/4 319/3/4
f 318/4/4 317/4/4 319/4/4
f 319/3/4 309/3/4 320/3/4
f 310/3/4 314/3/4 324/3/4
f 321/4/4 322/4/4 326/4/4
f 322/3/4 323/3/4 327/3/4
f 326/4/4 322/4/4 327/4/4
f 324/3/4 325/3/4 328/3/4
f 310/3/4 324/3/4 328/3/4
f 328/3/4 325/3/4 329/3/4
f 321/4/4 326/4/4 330/4/4
f 326/6/4 327/6/4 330/6/4
f 327/3/4 323/3/4 331/3/4
f 330/6/4 327/6/4 331/6/4
f 321/4/4 330/4/4 332/4/4
f 330/4/4 331/4/4 332/4/4
f 331/3/4 323/3/4 333/3/4
f 332/4/4 331/4/4 333/4/4
f 333/3/4 323/3/4 334/3/4
f 335/5/4 336/5/4 338/5/4
f 338/5/4 336/5/4 339/5/4
f 337/5/4 338/5/4 342/5/4
f 342/5/4 338/5/4 343/5/4
f 344/3/4 345/3/4 347/3/4
f 347/3/4 345/3/4 348/3/4
f 348/3/4 345/3/4 349/3/4
f 349/3/4 345/3/4 350/3/4
f 346/3/4 347/3/4 353/3/4
f 347/3/4 348/3/4 353/3/4
f 353/3/4 348/3/4 354/3/4
f 352/3/4 353/3/4 356/3/4
f 354/3/4 348/3/4 357/3/4
f 357/3/4 348/3/4 358/3/4
f 349/3/4 350/3/4 359/3/4
f 350/3/4 351/3/4 359/3/4
f 359/3/4 351/3/4 360/3/4
f 354/3/4 357/3/4 361/3/4
f 355/3/4 356/3/4 365/3/4
f 356/3/4 353/3/4 366/3/4
f 365/3/4 356/3/4 366/3/4
f 366/3/4 353/3/4 367/3/4
f 353/2/4 354/2/4 368/2/4
f 367/3/4 353/3/4 368/3/4
f 354/3/4 361/3/4 369/3/4
f 368/2/4 354/2/4 369/2/4
f 361/3/4 362/3/4 369/3/4
f 368/3/4 369/3/4 370/3/4
f 369/3/4 362/3/4 371/3/4
f 370/3/4 369/3/4 371/3/4
f 371/3/4 362/3/4 372/3/4
f 363/3/4 364/3/4 373/3/4
f 373/3/4 364/3/4 374/3/4
f 374/3/4 364/3/4 375/3/4
f 371/3/4 372/3/4 378/3/4
f 372/3/4 373/3/4 378/3/4
f 373/3/4 374/3/4 378/3/4
f 378/3/4 374/3/4 379/3/4
f 376/5/4 377/5/4 380/5/4
f 380/5/4 377/5/4 381/5/4
f 340/5/4 341/5/4 383/5/4
f 383/5/4 341/5/4 384/5/4
f 381/5/4 382/5/4 385/5/4
f 385/5/4 382/5/4 386/5/4
f 387/5/4 388/5/4 390/5/4
f 389/5/4 390/5/4 391/5/4
f 390/5/4 388/5/4 392/5/4
f 391/5/4 390/5/4 392/5/4
f 389/5/4 391/5/4 393/5/4
f 393/5/4 391/5/4 394/5/4
f 392/5/4 388/5/4 395/5/4
f 395/5/4 388/5/4 396/5/4
f 389/5/4 393/5/4 397/5/4
f 397/5/4 393/5/4 398/5/4
f 396/5/4 388/5/4 400/5/4
f 399/5/4 400/5/4 401/5/4
f 400/5/4 388/5/4 402/5/4
f 401/5/4 400/5/4 402/5/4
f 403/5/4 404/5/4 405/5/4
f 402/5/4 388/5/4 408/5/4
f 405/5/4 406/5/4 409/5/4
f 407/5/4 408/5/4 410/5/4
f 405/5/4 409/5/4 411/5/4
f 409/5/4 410/5/4 411/5/4
f 403/5/4 405/5/4 411/5/4
f 410/5/4 408/5/4 412/5/4
f 411/5/4 410/5/4 412/5/4
f 412/5/4 408/5/4 413/5/4
f 408/5/4 388/5/4 414/5/4
f 413/5/4 408/5/4 414/5/4
f 417/3/5 416/3/5 415/3/5
f 418/3/5 416/3/5 417/3/5
f 425/5/5 420/5/5 419/5/5
f 426/5/5 420/5/5 425/5/5
f 427/3/5 424/3/5 423/3/5
f 428/3/5 424/3/5 427/3/5
f 429/5/5 422/5/5 421/5/5
f 430/5/5 422/5/5 429/5/5
f 434/5/5 432/5/5 431/5/5
f 435/5/5 432/5/5 434/5/5
f 436/5/5 432/5/5 435/5/5
f 437/5/5 432/5/5 436/5/5
f 439/3/5 436/3/5 435/3/5
f 440/3/5 436/3/5 439/3/5
f 441/3/5 439/3/5 435/3/5
f 444/3/5 436/3/5 440/3/5
f 445/5/5 434/5/5 433/5/5
f 446/5/5 434/5/5 445/5/5
f 447/3/5 442/3/5 441/3/5
f 447/3/5 441/3/5 435/3/5
f 448/3/5 442/3/5 447/3/5
f 449/3/5 442/3/5 448/3/5
f 450/3/5 444/3/5 443/3/5
f 451/3/5 436/3/5 444/3/5
f 451/3/5 444/3/5 450/3/5
f 452/3/5 436/3/5 451/3/5
f 453/5/5 438/5/5 437/5/5
f 454/5/5 438/5/5 453/5/5
f 455/5/5 447/5/5 446/5/5
f 455/5/5 448/5/5 447/5/5
f 456/5/5 448/5/5 455/5/5
f 457/5/5 452/5/5 451/5/5
f 457/5/5 453/5/5 452/5/5
f 458/5/5 453/5/5 457/5/5
f 461/5/5 460/5/5 459/5/5
f 462/5/5 460/5/5 461/5/5
f 467/3/5 464/3/5 463/3/5
f 468/3/5 464/3/5 467/3/5
f 469/3/5 466/3/5 465/3/5
f 470/3/5 466/3/5 469/3/5
f 475/3/5 472/3/5 471/3/5
f 478/3/5 474/3/5 473/3/5
f 479/3/5 476/3/5 475/3/5
f 479/3/5 475/3/5 471/3/5
f 480/3/5 476/3/5 479/3/5
f 481/3/5 478/3/5 477/3/5
f 482/3/5 474/3/5 478/3/5
f 482/3/5 478/3/5 481/3/5
f 487/5/5 484/5/5 483/5/5
f 488/5/5 484/5/5 487/5/5
f 489/5/5 486/5/5 485/5/5
f 490/5/5 486/5/5 489/5/5
f 495/5/5 492/5/5 491/5/5
f 496/5/5 492/5/5 495/5/5
f 497/5/5 494/5/5 493/5/5
f 498/5/5 494/5/5 497/5/5
f 503/5/5 500/5/5 499/5/5
f 504/5/5 500/5/5 503/5/5
f 505/5/5 502/5/5 501/5/5
f 506/5/5 502/5/5 505/5/5
f 511/3/5 508/3/5 507/3/5
f 512/3/5 508/3/5 511/3/5
f 513/3/5 510/3/5 509/3/5
f 514/3/5 510/3/5 513/3/5
f 519/5/5 516/5/5 515/5/5
f 520/5/5 516/5/5 519/5/5
f 521/5/5 518/5/5 517/5/5
f 522/5/5 518/5/5 521/5/5
f 531/5/5 524/5/5 523/5/5
f 532/5/5 524/5/5 531/5/5
f 533/5/5 526/5/5 525/5/5
f 534/5/5 526/5/5 533/5/5
f 535/5/5 528/5/5 527/5/5
f 536/5/5 528/5/5 535/5/5
f 537/5/5 530/5/5 529/5/5
f 538/5/5 530/5/5 537/5/5
f 543/5/5 540/5/5 539/5/5
f 544/5/5 540/5/5 543/5/5
f 545/5/5 542/5/5 541/5/5
f 546/5/5 542/5/5 545/5/5
f 547/5/6 548/5/6 551/5/6
f 551/5/6 548/5/6 552/5/6
f 549/5/6 550/5/6 553/5/6
f 553/5/6 550/5/6 554/5/6
f 555/5/6 556/5/6 559/5/6
f 559/5/6 556/5/6 560/5/6
f 557/5/6 558/5/6 561/5/6
f 561/5/6 558/5/6 562/5/6
f 563/5/6 564/5/6 567/5/6
f 567/5/6 564/5/6 568/5/6
f 565/5/6 566/5/6 569/5/6
f 569/5/6 566/5/6 570/5/6
f 571/5/6 572/5/6 575/5/6
f 575/5/6 572/5/6 576/5/6
f 573/5/6 574/5/6 577/5/6
f 577/5/6 574/5/6 578/5/6
f 579/5/6 580/5/6 583/5/6
f 583/5/6 580/5/6 584/5/6
f 581/5/6 582/5/6 585/5/6
f 585/5/6 582/5/6 586/5/6
f 587/3/6 588/3/6 591/3/6
f 591/3/6 588/3/6 592/3/6
f 589/3/6 590/3/6 593/3/6
f 593/3/6 590/3/6 594/3/6
f 595/3/6 596/3/6 601/3/6
f 596/3/6 597/3/6 601/3/6
f 601/3/6 597/3/6 602/3/6
f 602/3/6 597/3/6 603/3/6
f 599/3/6 600/3/6 604/3/6
f 598/3/6 599/3/6 604/3/6
f 604/3/6 600/3/6 605/3/6
f 605/3/6 600/3/6 606/3/6
f 607/5/6 608/5/6 609/5/6
f 609/5/6 608/5/6 610/5/6
f 607/5/6 609/5/6 611/5/6
f 610/5/6 608/5/6 612/5/6
f 607/5/6 611/5/6 613/5/6
f 611/5/6 612/5/6 613/5/6
f 612/5/6 608/5/6 614/5/6
f 613/5/6 612/5/6 614/5/6
f 615/5/6 616/5/6 617/5/6
f 617/5/6 616/5/6 618/5/6
