# MagicaVoxel @ Ephtracy

# group
o 

# material
mtllib CharacterArm.mtl
usemtl palette

# normals
vn -1 0 0
vn 1 0 0
vn 0 0 1
vn 0 0 -1
vn 0 -1 0
vn 0 1 0

# texcoords
vt 0.369141 0.5
vt 0.978516 0.5
vt 0.982422 0.5
vt 0.986328 0.5

# verts
v 2.6 2.9 -1.6
v 2.6 2.9 -2.4
v 2.6 3 -1.6
v 2.6 3 -2.4
v 2.7 2.5 -1.7
v 2.7 2.5 -2.3
v 2.7 2.9 -1.7
v 2.7 2.9 -2.3
v 2.7 3 -1.7
v 2.7 3 -1.8
v 2.7 3 -1.9
v 2.7 3 -2.1
v 2.7 3 -2.2
v 2.7 3 -2.3
v 2.7 3.1 -1.7
v 2.7 3.1 -1.8
v 2.7 3.1 -1.9
v 2.7 3.1 -2.1
v 2.7 3.1 -2.2
v 2.7 3.1 -2.3
v 2.7 3.2 -1.7
v 2.7 3.2 -1.8
v 2.7 3.2 -1.9
v 2.7 3.2 -2.1
v 2.7 3.2 -2.2
v 2.7 3.2 -2.3
v 2.7 3.3 -1.7
v 2.7 3.3 -1.8
v 2.7 3.3 -1.9
v 2.7 3.3 -2.1
v 2.7 3.3 -2.2
v 2.7 3.3 -2.3
v 2.7 3.4 -1.7
v 2.7 3.4 -1.8
v 2.7 3.4 -1.9
v 2.7 3.4 -2.1
v 2.7 3.4 -2.2
v 2.7 3.4 -2.3
v 2.7 3.5 -1.7
v 2.7 3.5 -1.8
v 2.7 3.5 -1.9
v 2.7 3.5 -2.1
v 2.7 3.5 -2.2
v 2.7 3.5 -2.3
v 2.7 3.6 -1.7
v 2.7 3.6 -1.8
v 2.7 3.6 -1.9
v 2.7 3.6 -2.1
v 2.7 3.6 -2.2
v 2.7 3.6 -2.3
v 2.7 3.7 -1.7
v 2.7 3.7 -1.8
v 2.7 3.7 -1.9
v 2.7 3.7 -2.1
v 2.7 3.7 -2.2
v 2.7 3.7 -2.3
v 3 2.5 -1.7
v 3 2.5 -2.3
v 3 2.9 -1.7
v 3 2.9 -2.3
v 3 3 -1.7
v 3 3 -1.8
v 3 3 -1.9
v 3 3 -2.1
v 3 3 -2.2
v 3 3 -2.3
v 3 3.1 -1.7
v 3 3.1 -1.8
v 3 3.1 -1.9
v 3 3.1 -2.1
v 3 3.1 -2.2
v 3 3.1 -2.3
v 3 3.2 -1.7
v 3 3.2 -1.8
v 3 3.2 -1.9
v 3 3.2 -2.1
v 3 3.2 -2.2
v 3 3.2 -2.3
v 3 3.3 -1.7
v 3 3.3 -1.8
v 3 3.3 -1.9
v 3 3.3 -2.1
v 3 3.3 -2.2
v 3 3.3 -2.3
v 3 3.4 -1.7
v 3 3.4 -1.8
v 3 3.4 -1.9
v 3 3.4 -2.1
v 3 3.4 -2.2
v 3 3.4 -2.3
v 3 3.5 -1.7
v 3 3.5 -1.8
v 3 3.5 -1.9
v 3 3.5 -2.1
v 3 3.5 -2.2
v 3 3.5 -2.3
v 3 3.6 -1.7
v 3 3.6 -1.8
v 3 3.6 -1.9
v 3 3.6 -2.1
v 3 3.6 -2.2
v 3 3.6 -2.3
v 3 3.7 -1.7
v 3 3.7 -1.8
v 3 3.7 -1.9
v 3 3.7 -2.1
v 3 3.7 -2.2
v 3 3.7 -2.3
v 3.1 2.9 -1.6
v 3.1 2.9 -2.4
v 3.1 3 -1.6
v 3.1 3 -2.4
v 2.6 2.9 -1.6
v 2.6 3 -1.6
v 3.1 2.9 -1.6
v 3.1 3 -1.6
v 2.7 2.5 -1.7
v 2.7 2.9 -1.7
v 2.7 3 -1.7
v 2.7 3.1 -1.7
v 2.7 3.2 -1.7
v 2.7 3.3 -1.7
v 2.7 3.4 -1.7
v 2.7 3.5 -1.7
v 2.7 3.6 -1.7
v 2.7 3.7 -1.7
v 2.8 3 -1.7
v 2.8 3.1 -1.7
v 2.8 3.2 -1.7
v 2.8 3.3 -1.7
v 2.8 3.4 -1.7
v 2.8 3.5 -1.7
v 2.8 3.6 -1.7
v 2.8 3.7 -1.7
v 2.9 3 -1.7
v 2.9 3.1 -1.7
v 2.9 3.2 -1.7
v 2.9 3.3 -1.7
v 2.9 3.4 -1.7
v 2.9 3.5 -1.7
v 2.9 3.6 -1.7
v 2.9 3.7 -1.7
v 3 2.5 -1.7
v 3 2.9 -1.7
v 3 3 -1.7
v 3 3.1 -1.7
v 3 3.2 -1.7
v 3 3.3 -1.7
v 3 3.4 -1.7
v 3 3.5 -1.7
v 3 3.6 -1.7
v 3 3.7 -1.7
v 2.7 2.5 -2.3
v 2.7 2.9 -2.3
v 2.7 3 -2.3
v 2.7 3.1 -2.3
v 2.7 3.2 -2.3
v 2.7 3.3 -2.3
v 2.7 3.4 -2.3
v 2.7 3.5 -2.3
v 2.7 3.6 -2.3
v 2.7 3.7 -2.3
v 2.8 3 -2.3
v 2.8 3.1 -2.3
v 2.8 3.2 -2.3
v 2.8 3.3 -2.3
v 2.8 3.4 -2.3
v 2.8 3.5 -2.3
v 2.8 3.6 -2.3
v 2.8 3.7 -2.3
v 2.9 3 -2.3
v 2.9 3.1 -2.3
v 2.9 3.2 -2.3
v 2.9 3.3 -2.3
v 2.9 3.4 -2.3
v 2.9 3.5 -2.3
v 2.9 3.6 -2.3
v 2.9 3.7 -2.3
v 3 2.5 -2.3
v 3 2.9 -2.3
v 3 3 -2.3
v 3 3.1 -2.3
v 3 3.2 -2.3
v 3 3.3 -2.3
v 3 3.4 -2.3
v 3 3.5 -2.3
v 3 3.6 -2.3
v 3 3.7 -2.3
v 2.6 2.9 -2.4
v 2.6 3 -2.4
v 3.1 2.9 -2.4
v 3.1 3 -2.4
v 2.7 2.5 -1.7
v 3 2.5 -1.7
v 2.7 2.5 -2.3
v 3 2.5 -2.3
v 2.6 2.9 -1.6
v 3.1 2.9 -1.6
v 2.7 2.9 -1.7
v 3 2.9 -1.7
v 2.7 2.9 -2.3
v 3 2.9 -2.3
v 2.6 2.9 -2.4
v 3.1 2.9 -2.4
v 2.6 3 -1.6
v 3.1 3 -1.6
v 2.7 3 -1.7
v 2.8 3 -1.7
v 2.9 3 -1.7
v 3 3 -1.7
v 2.7 3 -1.8
v 3 3 -1.8
v 2.7 3 -1.9
v 3 3 -1.9
v 2.7 3 -2.1
v 3 3 -2.1
v 2.7 3 -2.2
v 3 3 -2.2
v 2.7 3 -2.3
v 2.8 3 -2.3
v 2.9 3 -2.3
v 3 3 -2.3
v 2.6 3 -2.4
v 3.1 3 -2.4
v 2.7 3.7 -1.7
v 2.8 3.7 -1.7
v 2.9 3.7 -1.7
v 3 3.7 -1.7
v 2.7 3.7 -1.8
v 2.8 3.7 -1.8
v 2.9 3.7 -1.8
v 3 3.7 -1.8
v 2.7 3.7 -1.9
v 2.8 3.7 -1.9
v 2.9 3.7 -1.9
v 3 3.7 -1.9
v 2.7 3.7 -2.1
v 2.8 3.7 -2.1
v 2.9 3.7 -2.1
v 3 3.7 -2.1
v 2.7 3.7 -2.2
v 2.8 3.7 -2.2
v 2.9 3.7 -2.2
v 3 3.7 -2.2
v 2.7 3.7 -2.3
v 2.8 3.7 -2.3
v 2.9 3.7 -2.3
v 3 3.7 -2.3

# faces
f 3/3/1 2/3/1 1/3/1
f 4/3/1 2/3/1 3/3/1
f 7/3/1 6/3/1 5/3/1
f 8/3/1 6/3/1 7/3/1
f 15/4/1 10/4/1 9/4/1
f 16/2/1 11/2/1 10/2/1
f 16/4/1 10/4/1 15/4/1
f 17/4/1 12/4/1 11/4/1
f 17/2/1 11/2/1 16/2/1
f 18/2/1 13/2/1 12/2/1
f 18/4/1 12/4/1 17/4/1
f 19/4/1 14/4/1 13/4/1
f 19/2/1 13/2/1 18/2/1
f 20/4/1 14/4/1 19/4/1
f 21/2/1 16/2/1 15/2/1
f 22/4/1 17/4/1 16/4/1
f 22/2/1 16/2/1 21/2/1
f 23/2/1 18/2/1 17/2/1
f 23/4/1 17/4/1 22/4/1
f 24/4/1 19/4/1 18/4/1
f 24/2/1 18/2/1 23/2/1
f 25/2/1 20/2/1 19/2/1
f 25/4/1 19/4/1 24/4/1
f 26/2/1 20/2/1 25/2/1
f 27/4/1 22/4/1 21/4/1
f 28/2/1 23/2/1 22/2/1
f 28/4/1 22/4/1 27/4/1
f 29/4/1 24/4/1 23/4/1
f 29/2/1 23/2/1 28/2/1
f 30/2/1 25/2/1 24/2/1
f 30/4/1 24/4/1 29/4/1
f 31/4/1 26/4/1 25/4/1
f 31/2/1 25/2/1 30/2/1
f 32/4/1 26/4/1 31/4/1
f 33/2/1 28/2/1 27/2/1
f 34/4/1 29/4/1 28/4/1
f 34/2/1 28/2/1 33/2/1
f 35/2/1 30/2/1 29/2/1
f 35/4/1 29/4/1 34/4/1
f 36/4/1 31/4/1 30/4/1
f 36/2/1 30/2/1 35/2/1
f 37/2/1 32/2/1 31/2/1
f 37/4/1 31/4/1 36/4/1
f 38/2/1 32/2/1 37/2/1
f 39/4/1 34/4/1 33/4/1
f 40/2/1 35/2/1 34/2/1
f 40/4/1 34/4/1 39/4/1
f 41/4/1 36/4/1 35/4/1
f 41/2/1 35/2/1 40/2/1
f 42/2/1 37/2/1 36/2/1
f 42/4/1 36/4/1 41/4/1
f 43/4/1 38/4/1 37/4/1
f 43/2/1 37/2/1 42/2/1
f 44/4/1 38/4/1 43/4/1
f 45/2/1 40/2/1 39/2/1
f 46/4/1 41/4/1 40/4/1
f 46/2/1 40/2/1 45/2/1
f 47/2/1 42/2/1 41/2/1
f 47/4/1 41/4/1 46/4/1
f 48/4/1 43/4/1 42/4/1
f 48/2/1 42/2/1 47/2/1
f 49/2/1 44/2/1 43/2/1
f 49/4/1 43/4/1 48/4/1
f 50/2/1 44/2/1 49/2/1
f 51/4/1 46/4/1 45/4/1
f 52/2/1 47/2/1 46/2/1
f 52/4/1 46/4/1 51/4/1
f 53/4/1 48/4/1 47/4/1
f 53/2/1 47/2/1 52/2/1
f 54/2/1 49/2/1 48/2/1
f 54/4/1 48/4/1 53/4/1
f 55/4/1 50/4/1 49/4/1
f 55/2/1 49/2/1 54/2/1
f 56/4/1 50/4/1 55/4/1
f 57/3/2 58/3/2 59/3/2
f 59/3/2 58/3/2 60/3/2
f 61/4/2 62/4/2 67/4/2
f 62/2/2 63/2/2 68/2/2
f 67/4/2 62/4/2 68/4/2
f 63/4/2 64/4/2 69/4/2
f 68/2/2 63/2/2 69/2/2
f 64/2/2 65/2/2 70/2/2
f 69/4/2 64/4/2 70/4/2
f 65/4/2 66/4/2 71/4/2
f 70/2/2 65/2/2 71/2/2
f 71/4/2 66/4/2 72/4/2
f 67/2/2 68/2/2 73/2/2
f 68/4/2 69/4/2 74/4/2
f 73/2/2 68/2/2 74/2/2
f 69/2/2 70/2/2 75/2/2
f 74/4/2 69/4/2 75/4/2
f 70/4/2 71/4/2 76/4/2
f 75/2/2 70/2/2 76/2/2
f 71/2/2 72/2/2 77/2/2
f 76/4/2 71/4/2 77/4/2
f 77/2/2 72/2/2 78/2/2
f 73/4/2 74/4/2 79/4/2
f 74/2/2 75/2/2 80/2/2
f 79/4/2 74/4/2 80/4/2
f 75/4/2 76/4/2 81/4/2
f 80/2/2 75/2/2 81/2/2
f 76/2/2 77/2/2 82/2/2
f 81/4/2 76/4/2 82/4/2
f 77/4/2 78/4/2 83/4/2
f 82/2/2 77/2/2 83/2/2
f 83/4/2 78/4/2 84/4/2
f 79/2/2 80/2/2 85/2/2
f 80/4/2 81/4/2 86/4/2
f 85/2/2 80/2/2 86/2/2
f 81/2/2 82/2/2 87/2/2
f 86/4/2 81/4/2 87/4/2
f 82/4/2 83/4/2 88/4/2
f 87/2/2 82/2/2 88/2/2
f 83/2/2 84/2/2 89/2/2
f 88/4/2 83/4/2 89/4/2
f 89/2/2 84/2/2 90/2/2
f 85/4/2 86/4/2 91/4/2
f 86/2/2 87/2/2 92/2/2
f 91/4/2 86/4/2 92/4/2
f 87/4/2 88/4/2 93/4/2
f 92/2/2 87/2/2 93/2/2
f 88/2/2 89/2/2 94/2/2
f 93/4/2 88/4/2 94/4/2
f 89/4/2 90/4/2 95/4/2
f 94/2/2 89/2/2 95/2/2
f 95/4/2 90/4/2 96/4/2
f 91/2/2 92/2/2 97/2/2
f 92/4/2 93/4/2 98/4/2
f 97/2/2 92/2/2 98/2/2
f 93/2/2 94/2/2 99/2/2
f 98/4/2 93/4/2 99/4/2
f 94/4/2 95/4/2 100/4/2
f 99/2/2 94/2/2 100/2/2
f 95/2/2 96/2/2 101/2/2
f 100/4/2 95/4/2 101/4/2
f 101/2/2 96/2/2 102/2/2
f 97/4/2 98/4/2 103/4/2
f 98/2/2 99/2/2 104/2/2
f 103/4/2 98/4/2 104/4/2
f 99/4/2 100/4/2 105/4/2
f 104/2/2 99/2/2 105/2/2
f 100/2/2 101/2/2 106/2/2
f 105/4/2 100/4/2 106/4/2
f 101/4/2 102/4/2 107/4/2
f 106/2/2 101/2/2 107/2/2
f 107/4/2 102/4/2 108/4/2
f 109/3/2 110/3/2 111/3/2
f 111/3/2 110/3/2 112/3/2
f 115/3/3 114/3/3 113/3/3
f 116/3/3 114/3/3 115/3/3
f 127/4/3 120/4/3 119/4/3
f 128/2/3 121/2/3 120/2/3
f 128/4/3 120/4/3 127/4/3
f 129/4/3 122/4/3 121/4/3
f 129/2/3 121/2/3 128/2/3
f 130/2/3 123/2/3 122/2/3
f 130/4/3 122/4/3 129/4/3
f 131/4/3 124/4/3 123/4/3
f 131/2/3 123/2/3 130/2/3
f 132/2/3 125/2/3 124/2/3
f 132/4/3 124/4/3 131/4/3
f 133/4/3 126/4/3 125/4/3
f 133/2/3 125/2/3 132/2/3
f 134/4/3 126/4/3 133/4/3
f 135/2/3 128/2/3 127/2/3
f 136/4/3 129/4/3 128/4/3
f 136/2/3 128/2/3 135/2/3
f 137/2/3 130/2/3 129/2/3
f 137/4/3 129/4/3 136/4/3
f 138/4/3 131/4/3 130/4/3
f 138/2/3 130/2/3 137/2/3
f 139/2/3 132/2/3 131/2/3
f 139/4/3 131/4/3 138/4/3
f 140/4/3 133/4/3 132/4/3
f 140/2/3 132/2/3 139/2/3
f 141/2/3 134/2/3 133/2/3
f 141/4/3 133/4/3 140/4/3
f 142/2/3 134/2/3 141/2/3
f 143/3/3 118/3/3 117/3/3
f 144/3/3 118/3/3 143/3/3
f 145/4/3 136/4/3 135/4/3
f 146/2/3 137/2/3 136/2/3
f 146/4/3 136/4/3 145/4/3
f 147/4/3 138/4/3 137/4/3
f 147/2/3 137/2/3 146/2/3
f 148/2/3 139/2/3 138/2/3
f 148/4/3 138/4/3 147/4/3
f 149/4/3 140/4/3 139/4/3
f 149/2/3 139/2/3 148/2/3
f 150/2/3 141/2/3 140/2/3
f 150/4/3 140/4/3 149/4/3
f 151/4/3 142/4/3 141/4/3
f 151/2/3 141/2/3 150/2/3
f 152/4/3 142/4/3 151/4/3
f 155/4/4 156/4/4 163/4/4
f 156/2/4 157/2/4 164/2/4
f 163/4/4 156/4/4 164/4/4
f 157/4/4 158/4/4 165/4/4
f 164/2/4 157/2/4 165/2/4
f 158/2/4 159/2/4 166/2/4
f 165/4/4 158/4/4 166/4/4
f 159/4/4 160/4/4 167/4/4
f 166/2/4 159/2/4 167/2/4
f 160/2/4 161/2/4 168/2/4
f 167/4/4 160/4/4 168/4/4
f 161/4/4 162/4/4 169/4/4
f 168/2/4 161/2/4 169/2/4
f 169/4/4 162/4/4 170/4/4
f 163/2/4 164/2/4 171/2/4
f 164/4/4 165/4/4 172/4/4
f 171/2/4 164/2/4 172/2/4
f 165/2/4 166/2/4 173/2/4
f 172/4/4 165/4/4 173/4/4
f 166/4/4 167/4/4 174/4/4
f 173/2/4 166/2/4 174/2/4
f 167/2/4 168/2/4 175/2/4
f 174/4/4 167/4/4 175/4/4
f 168/4/4 169/4/4 176/4/4
f 175/2/4 168/2/4 176/2/4
f 169/2/4 170/2/4 177/2/4
f 176/4/4 169/4/4 177/4/4
f 177/2/4 170/2/4 178/2/4
f 153/3/4 154/3/4 179/3/4
f 179/3/4 154/3/4 180/3/4
f 171/4/4 172/4/4 181/4/4
f 172/2/4 173/2/4 182/2/4
f 181/4/4 172/4/4 182/4/4
f 173/4/4 174/4/4 183/4/4
f 182/2/4 173/2/4 183/2/4
f 174/2/4 175/2/4 184/2/4
f 183/4/4 174/4/4 184/4/4
f 175/4/4 176/4/4 185/4/4
f 184/2/4 175/2/4 185/2/4
f 176/2/4 177/2/4 186/2/4
f 185/4/4 176/4/4 186/4/4
f 177/4/4 178/4/4 187/4/4
f 186/2/4 177/2/4 187/2/4
f 187/4/4 178/4/4 188/4/4
f 189/3/4 190/3/4 191/3/4
f 191/3/4 190/3/4 192/3/4
f 195/3/5 194/3/5 193/3/5
f 196/3/5 194/3/5 195/3/5
f 199/3/5 198/3/5 197/3/5
f 200/3/5 198/3/5 199/3/5
f 201/3/5 199/3/5 197/3/5
f 202/3/5 198/3/5 200/3/5
f 203/3/5 201/3/5 197/3/5
f 203/3/5 202/3/5 201/3/5
f 204/3/5 198/3/5 202/3/5
f 204/3/5 202/3/5 203/3/5
f 205/3/6 206/3/6 207/3/6
f 207/3/6 206/3/6 208/3/6
f 208/3/6 206/3/6 209/3/6
f 209/3/6 206/3/6 210/3/6
f 205/3/6 207/3/6 211/3/6
f 210/3/6 206/3/6 212/3/6
f 205/3/6 211/3/6 213/3/6
f 212/3/6 206/3/6 214/3/6
f 205/3/6 213/3/6 215/3/6
f 214/3/6 206/3/6 216/3/6
f 205/3/6 215/3/6 217/3/6
f 216/3/6 206/3/6 218/3/6
f 205/3/6 217/3/6 219/3/6
f 218/3/6 206/3/6 222/3/6
f 220/3/6 221/3/6 223/3/6
f 221/3/6 222/3/6 223/3/6
f 205/3/6 219/3/6 223/3/6
f 219/3/6 220/3/6 223/3/6
f 222/3/6 206/3/6 224/3/6
f 223/3/6 222/3/6 224/3/6
f 225/4/6 226/4/6 229/4/6
f 226/2/6 227/2/6 230/2/6
f 229/4/6 226/4/6 230/4/6
f 227/4/6 228/4/6 231/4/6
f 230/2/6 227/2/6 231/2/6
f 231/4/6 228/4/6 232/4/6
f 229/2/6 230/2/6 233/2/6
f 230/4/6 231/4/6 234/4/6
f 233/2/6 230/2/6 234/2/6
f 231/2/6 232/2/6 235/2/6
f 234/4/6 231/4/6 235/4/6
f 235/2/6 232/2/6 236/2/6
f 233/4/6 234/4/6 237/4/6
f 234/2/6 235/2/6 238/2/6
f 237/4/6 234/4/6 238/4/6
f 235/4/6 236/4/6 239/4/6
f 238/2/6 235/2/6 239/2/6
f 239/4/6 236/4/6 240/4/6
f 237/2/6 238/2/6 241/2/6
f 238/4/6 239/4/6 242/4/6
f 241/2/6 238/2/6 242/2/6
f 239/2/6 240/2/6 243/2/6
f 242/4/6 239/4/6 243/4/6
f 243/2/6 240/2/6 244/2/6
f 241/4/6 242/4/6 245/4/6
f 242/2/6 243/2/6 246/2/6
f 245/4/6 242/4/6 246/4/6
f 243/4/6 244/4/6 247/4/6
f 246/2/6 243/2/6 247/2/6
f 247/4/6 244/4/6 248/4/6
