# MagicaVoxel @ Ephtracy

# group
o 

# material
mtllib GrassTile.mtl
usemtl palette

# normals
vn -1 0 0
vn 1 0 0
vn 0 0 1
vn 0 0 -1
vn 0 -1 0
vn 0 1 0

# texcoords
vt 0.888672 0.5
vt 0.892578 0.5
vt 0.896484 0.5

# verts
v 0 2 0
v 0 2 -0.2
v 0 2 -0.5
v 0 2 -4
v 0 2.1 0
v 0 2.1 -0.2
v 0 2.1 -2
v 0 2.1 -4
v 0 2.2 0
v 0 2.2 -0.5
v 0 2.2 -2
v 0 2.2 -4
v 4 2 0
v 4 2 -0.2
v 4 2 -0.5
v 4 2 -4
v 4 2.1 0
v 4 2.1 -0.2
v 4 2.1 -0.5
v 4 2.1 -0.6
v 4 2.1 -2
v 4 2.1 -4
v 4 2.2 0
v 4 2.2 -0.5
v 4 2.2 -0.6
v 4 2.2 -2
v 4 2.2 -4
v 0 2 0
v 0 2.1 0
v 0 2.2 0
v 0.2 2.1 0
v 0.2 2.2 0
v 0.3 2.1 0
v 0.3 2.2 0
v 0.9 2.1 0
v 0.9 2.2 0
v 2.5 2.1 0
v 2.5 2.2 0
v 3.6 2.1 0
v 3.6 2.2 0
v 3.7 2.1 0
v 3.7 2.2 0
v 4 2 0
v 4 2.1 0
v 4 2.2 0
v 0 2 -4
v 0 2.1 -4
v 0 2.2 -4
v 0.2 2.1 -4
v 0.2 2.2 -4
v 0.3 2.1 -4
v 0.3 2.2 -4
v 0.8 2.1 -4
v 0.8 2.2 -4
v 2.5 2.1 -4
v 2.5 2.2 -4
v 3.6 2.1 -4
v 3.6 2.2 -4
v 3.7 2.1 -4
v 3.7 2.2 -4
v 4 2 -4
v 4 2.1 -4
v 4 2.2 -4
v 0 2 0
v 4 2 0
v 0 2 -0.2
v 0.1 2 -0.2
v 3.8 2 -0.2
v 4 2 -0.2
v 0 2 -0.5
v 0.1 2 -0.5
v 3.8 2 -0.5
v 4 2 -0.5
v 0 2 -4
v 4 2 -4
v 0 2.2 0
v 0.2 2.2 0
v 0.3 2.2 0
v 0.9 2.2 0
v 2.5 2.2 0
v 3.6 2.2 0
v 3.7 2.2 0
v 4 2.2 0
v 1 2.2 -0.1
v 1.6 2.2 -0.1
v 0.1 2.2 -0.2
v 0.2 2.2 -0.2
v 1.2 2.2 -0.2
v 1.6 2.2 -0.2
v 1.7 2.2 -0.2
v 3.7 2.2 -0.3
v 3.8 2.2 -0.3
v 1 2.2 -0.4
v 1.2 2.2 -0.4
v 1.7 2.2 -0.4
v 2.5 2.2 -0.4
v 2.6 2.2 -0.4
v 0 2.2 -0.5
v 0.1 2.2 -0.5
v 0.3 2.2 -0.5
v 0.9 2.2 -0.5
v 3.8 2.2 -0.5
v 4 2.2 -0.5
v 3.7 2.2 -0.6
v 4 2.2 -0.6
v 1.2 2.2 -0.7
v 1.4 2.2 -0.7
v 1.9 2.2 -0.7
v 2.4 2.2 -0.7
v 2.6 2.2 -0.7
v 3.2 2.2 -0.8
v 3.6 2.2 -0.8
v 0.2 2.2 -1
v 0.6 2.2 -1
v 3.2 2.2 -1
v 3.6 2.2 -1
v 1.9 2.2 -1.1
v 2.1 2.2 -1.1
v 3.1 2.2 -1.1
v 3.2 2.2 -1.1
v 0.6 2.2 -1.3
v 0.8 2.2 -1.3
v 1.4 2.2 -1.3
v 1.7 2.2 -1.3
v 2.4 2.2 -1.3
v 3.1 2.2 -1.3
v 3.2 2.2 -1.3
v 3.7 2.2 -1.3
v 1.2 2.2 -1.5
v 1.7 2.2 -1.5
v 2.1 2.2 -1.5
v 0.2 2.2 -1.6
v 0.3 2.2 -1.6
v 0.7 2.2 -1.6
v 0.8 2.2 -1.6
v 3.2 2.2 -1.6
v 3.4 2.2 -1.6
v 0.3 2.2 -1.8
v 0.7 2.2 -1.8
v 3.7 2.2 -1.8
v 3.9 2.2 -1.8
v 0 2.2 -2
v 0.1 2.2 -2
v 3.9 2.2 -2
v 4 2.2 -2
v 0.1 2.2 -2.1
v 2.7 2.2 -2.1
v 3.4 2.2 -2.1
v 3.5 2.2 -2.1
v 3 2.2 -2.2
v 3.5 2.2 -2.2
v 0.8 2.2 -2.3
v 1.5 2.2 -2.3
v 3 2.2 -2.3
v 3.1 2.2 -2.3
v 1.4 2.2 -2.4
v 1.5 2.2 -2.4
v 3.1 2.2 -2.4
v 3.3 2.2 -2.4
v 0.8 2.2 -2.6
v 1.4 2.2 -2.6
v 2.3 2.2 -2.6
v 3.3 2.2 -2.6
v 3.9 2.2 -2.6
v 2.3 2.2 -2.7
v 2.7 2.2 -2.7
v 0.1 2.2 -2.9
v 0.3 2.2 -2.9
v 0.5 2.2 -2.9
v 0.7 2.2 -2.9
v 0.8 2.2 -2.9
v 0.6 2.2 -3
v 0.7 2.2 -3
v 2.2 2.2 -3
v 3 2.2 -3
v 3.3 2.2 -3
v 1.2 2.2 -3.2
v 1.5 2.2 -3.2
v 3.3 2.2 -3.2
v 3.5 2.2 -3.2
v 0.6 2.2 -3.3
v 0.7 2.2 -3.3
v 1.1 2.2 -3.3
v 1.2 2.2 -3.3
v 3 2.2 -3.3
v 3.3 2.2 -3.3
v 0.3 2.2 -3.6
v 0.4 2.2 -3.6
v 1.1 2.2 -3.6
v 1.2 2.2 -3.6
v 0.1 2.2 -3.7
v 0.2 2.2 -3.7
v 0.3 2.2 -3.7
v 0.4 2.2 -3.7
v 0.5 2.2 -3.7
v 0.7 2.2 -3.7
v 0.8 2.2 -3.7
v 3.7 2.2 -3.7
v 3.9 2.2 -3.7
v 1.2 2.2 -3.8
v 1.5 2.2 -3.8
v 2.2 2.2 -3.9
v 2.5 2.2 -3.9
v 3.5 2.2 -3.9
v 3.6 2.2 -3.9
v 0 2.2 -4
v 0.2 2.2 -4
v 0.3 2.2 -4
v 0.8 2.2 -4
v 2.5 2.2 -4
v 3.6 2.2 -4
v 3.7 2.2 -4
v 4 2.2 -4

# faces
f 5/2/1 2/2/1 1/2/1
f 6/3/1 3/3/1 2/3/1
f 6/2/1 2/2/1 5/2/1
f 7/2/1 4/2/1 3/2/1
f 8/2/1 4/2/1 7/2/1
f 9/3/1 6/3/1 5/3/1
f 10/3/1 3/3/1 6/3/1
f 10/3/1 6/3/1 9/3/1
f 10/2/1 7/2/1 3/2/1
f 11/3/1 8/3/1 7/3/1
f 11/2/1 7/2/1 10/2/1
f 12/3/1 8/3/1 11/3/1
f 13/2/2 14/2/2 17/2/2
f 14/3/2 15/3/2 18/3/2
f 17/2/2 14/2/2 18/2/2
f 15/2/2 16/2/2 19/2/2
f 18/3/2 15/3/2 19/3/2
f 19/2/2 16/2/2 20/2/2
f 20/2/2 16/2/2 21/2/2
f 21/2/2 16/2/2 22/2/2
f 17/3/2 18/3/2 23/3/2
f 18/3/2 19/3/2 23/3/2
f 19/1/2 20/1/2 24/1/2
f 23/3/2 19/3/2 24/3/2
f 20/2/2 21/2/2 25/2/2
f 24/1/2 20/1/2 25/1/2
f 21/3/2 22/3/2 26/3/2
f 25/2/2 21/2/2 26/2/2
f 26/3/2 22/3/2 27/3/2
f 31/2/3 29/2/3 28/2/3
f 31/3/3 30/3/3 29/3/3
f 32/3/3 30/3/3 31/3/3
f 33/2/3 31/2/3 28/2/3
f 33/1/3 32/1/3 31/1/3
f 34/1/3 32/1/3 33/1/3
f 35/2/3 33/2/3 28/2/3
f 35/3/3 34/3/3 33/3/3
f 36/3/3 34/3/3 35/3/3
f 37/2/3 35/2/3 28/2/3
f 37/2/3 36/2/3 35/2/3
f 38/2/3 36/2/3 37/2/3
f 39/2/3 37/2/3 28/2/3
f 39/3/3 38/3/3 37/3/3
f 40/3/3 38/3/3 39/3/3
f 41/2/3 39/2/3 28/2/3
f 41/2/3 40/2/3 39/2/3
f 42/2/3 40/2/3 41/2/3
f 43/2/3 41/2/3 28/2/3
f 44/3/3 42/3/3 41/3/3
f 44/2/3 41/2/3 43/2/3
f 45/3/3 42/3/3 44/3/3
f 46/2/4 47/2/4 49/2/4
f 47/3/4 48/3/4 49/3/4
f 49/3/4 48/3/4 50/3/4
f 46/2/4 49/2/4 51/2/4
f 49/2/4 50/2/4 51/2/4
f 51/2/4 50/2/4 52/2/4
f 46/2/4 51/2/4 53/2/4
f 51/3/4 52/3/4 53/3/4
f 53/3/4 52/3/4 54/3/4
f 46/2/4 53/2/4 55/2/4
f 53/2/4 54/2/4 55/2/4
f 55/2/4 54/2/4 56/2/4
f 46/2/4 55/2/4 57/2/4
f 55/3/4 56/3/4 57/3/4
f 57/3/4 56/3/4 58/3/4
f 46/2/4 57/2/4 59/2/4
f 57/2/4 58/2/4 59/2/4
f 59/2/4 58/2/4 60/2/4
f 46/2/4 59/2/4 61/2/4
f 59/3/4 60/3/4 62/3/4
f 61/2/4 59/2/4 62/2/4
f 62/3/4 60/3/4 63/3/4
f 66/2/5 65/2/5 64/2/5
f 67/2/5 65/2/5 66/2/5
f 68/2/5 65/2/5 67/2/5
f 69/2/5 65/2/5 68/2/5
f 70/3/5 67/3/5 66/3/5
f 71/2/5 68/2/5 67/2/5
f 71/3/5 67/3/5 70/3/5
f 72/3/5 69/3/5 68/3/5
f 72/2/5 68/2/5 71/2/5
f 73/3/5 69/3/5 72/3/5
f 74/2/5 71/2/5 70/2/5
f 74/2/5 72/2/5 71/2/5
f 74/2/5 73/2/5 72/2/5
f 75/2/5 73/2/5 74/2/5
f 79/2/6 80/2/6 84/2/6
f 84/2/6 80/2/6 85/2/6
f 76/3/6 77/3/6 86/3/6
f 77/1/6 78/1/6 87/1/6
f 86/3/6 77/3/6 87/3/6
f 84/1/6 85/1/6 88/1/6
f 85/2/6 80/2/6 89/2/6
f 88/1/6 85/1/6 89/1/6
f 89/2/6 80/2/6 90/2/6
f 82/3/6 83/3/6 91/3/6
f 81/2/6 82/2/6 91/2/6
f 91/3/6 83/3/6 92/3/6
f 84/1/6 88/1/6 93/1/6
f 79/2/6 84/2/6 93/2/6
f 89/3/6 90/3/6 94/3/6
f 93/1/6 88/1/6 94/1/6
f 88/3/6 89/3/6 94/3/6
f 90/2/6 80/2/6 95/2/6
f 94/3/6 90/3/6 95/3/6
f 80/3/6 81/3/6 96/3/6
f 95/2/6 80/2/6 96/2/6
f 96/3/6 81/3/6 97/3/6
f 76/3/6 86/3/6 98/3/6
f 86/1/6 87/1/6 99/1/6
f 98/3/6 86/3/6 99/3/6
f 78/3/6 79/3/6 100/3/6
f 99/1/6 87/1/6 100/1/6
f 87/1/6 78/1/6 100/1/6
f 93/2/6 94/2/6 101/2/6
f 100/3/6 79/3/6 101/3/6
f 94/2/6 95/2/6 101/2/6
f 95/2/6 96/2/6 101/2/6
f 79/2/6 93/2/6 101/2/6
f 96/2/6 97/2/6 101/2/6
f 92/3/6 83/3/6 102/3/6
f 91/1/6 92/1/6 102/1/6
f 102/3/6 83/3/6 103/3/6
f 81/2/6 91/2/6 104/2/6
f 91/1/6 102/1/6 104/1/6
f 102/1/6 103/1/6 104/1/6
f 104/1/6 103/1/6 105/1/6
f 101/2/6 97/2/6 106/2/6
f 98/2/6 99/2/6 106/2/6
f 99/2/6 100/2/6 106/2/6
f 100/2/6 101/2/6 106/2/6
f 106/2/6 97/2/6 107/2/6
f 107/2/6 97/2/6 108/2/6
f 108/2/6 97/2/6 109/2/6
f 97/3/6 81/3/6 110/3/6
f 109/2/6 97/2/6 110/2/6
f 109/3/6 110/3/6 111/3/6
f 110/3/6 81/3/6 111/3/6
f 104/2/6 105/2/6 112/2/6
f 111/3/6 81/3/6 112/3/6
f 81/2/6 104/2/6 112/2/6
f 98/2/6 106/2/6 113/2/6
f 113/2/6 106/2/6 114/2/6
f 109/3/6 111/3/6 115/3/6
f 111/1/6 112/1/6 115/1/6
f 112/2/6 105/2/6 116/2/6
f 115/1/6 112/1/6 116/1/6
f 108/2/6 109/2/6 117/2/6
f 107/3/6 108/3/6 117/3/6
f 117/2/6 109/2/6 118/2/6
f 109/3/6 115/3/6 119/3/6
f 115/2/6 116/2/6 120/2/6
f 119/3/6 115/3/6 120/3/6
f 114/2/6 106/2/6 121/2/6
f 113/3/6 114/3/6 121/3/6
f 121/2/6 106/2/6 122/2/6
f 106/1/6 107/1/6 123/1/6
f 107/3/6 117/3/6 123/3/6
f 117/3/6 118/3/6 123/3/6
f 123/3/6 118/3/6 124/3/6
f 109/3/6 119/3/6 125/3/6
f 118/2/6 109/2/6 125/2/6
f 119/2/6 120/2/6 126/2/6
f 125/3/6 119/3/6 126/3/6
f 120/2/6 116/2/6 127/2/6
f 126/2/6 120/2/6 127/2/6
f 116/2/6 105/2/6 128/2/6
f 127/2/6 116/2/6 128/2/6
f 123/1/6 124/1/6 129/1/6
f 122/2/6 106/2/6 129/2/6
f 106/1/6 123/1/6 129/1/6
f 124/3/6 118/3/6 130/3/6
f 129/1/6 124/1/6 130/1/6
f 126/2/6 127/2/6 131/2/6
f 130/3/6 118/3/6 131/3/6
f 125/2/6 126/2/6 131/2/6
f 118/2/6 125/2/6 131/2/6
f 113/3/6 121/3/6 132/3/6
f 121/3/6 122/3/6 132/3/6
f 98/2/6 113/2/6 132/2/6
f 132/3/6 122/3/6 133/3/6
f 133/3/6 122/3/6 134/3/6
f 129/2/6 130/2/6 135/2/6
f 134/3/6 122/3/6 135/3/6
f 122/2/6 129/2/6 135/2/6
f 130/2/6 131/2/6 135/2/6
f 131/2/6 127/2/6 136/2/6
f 135/2/6 131/2/6 136/2/6
f 127/3/6 128/3/6 136/3/6
f 136/3/6 128/3/6 137/3/6
f 133/3/6 134/3/6 138/3/6
f 132/2/6 133/2/6 138/2/6
f 134/2/6 135/2/6 139/2/6
f 138/3/6 134/3/6 139/3/6
f 136/2/6 137/2/6 139/2/6
f 135/2/6 136/2/6 139/2/6
f 137/3/6 128/3/6 140/3/6
f 128/2/6 105/2/6 140/2/6
f 140/2/6 105/2/6 141/2/6
f 132/2/6 138/2/6 142/2/6
f 98/2/6 132/2/6 142/2/6
f 138/2/6 139/2/6 142/2/6
f 142/2/6 139/2/6 143/2/6
f 141/2/6 105/2/6 144/2/6
f 140/3/6 141/3/6 144/3/6
f 144/2/6 105/2/6 145/2/6
f 143/2/6 139/2/6 146/2/6
f 142/3/6 143/3/6 146/3/6
f 139/2/6 137/2/6 147/2/6
f 146/2/6 139/2/6 147/2/6
f 144/3/6 145/3/6 148/3/6
f 147/2/6 137/2/6 148/2/6
f 137/3/6 140/3/6 148/3/6
f 140/3/6 144/3/6 148/3/6
f 148/3/6 145/3/6 149/3/6
f 147/2/6 148/2/6 150/2/6
f 148/2/6 149/2/6 150/2/6
f 149/3/6 145/3/6 151/3/6
f 150/2/6 149/2/6 151/2/6
f 146/3/6 147/3/6 152/3/6
f 152/3/6 147/3/6 153/3/6
f 147/2/6 150/2/6 154/2/6
f 150/3/6 151/3/6 154/3/6
f 154/3/6 151/3/6 155/3/6
f 152/1/6 153/1/6 156/1/6
f 153/3/6 147/3/6 157/3/6
f 156/1/6 153/1/6 157/1/6
f 155/3/6 151/3/6 158/3/6
f 154/2/6 155/2/6 158/2/6
f 158/3/6 151/3/6 159/3/6
f 152/1/6 156/1/6 160/1/6
f 146/3/6 152/3/6 160/3/6
f 156/3/6 157/3/6 161/3/6
f 160/1/6 156/1/6 161/1/6
f 157/3/6 147/3/6 162/3/6
f 161/3/6 157/3/6 162/3/6
f 159/3/6 151/3/6 163/3/6
f 158/2/6 159/2/6 163/2/6
f 151/3/6 145/3/6 164/3/6
f 163/3/6 151/3/6 164/3/6
f 162/3/6 147/3/6 165/3/6
f 160/2/6 161/2/6 165/2/6
f 161/2/6 162/2/6 165/2/6
f 158/2/6 163/2/6 166/2/6
f 165/3/6 147/3/6 166/3/6
f 163/2/6 164/2/6 166/2/6
f 154/2/6 158/2/6 166/2/6
f 147/2/6 154/2/6 166/2/6
f 142/3/6 146/3/6 167/3/6
f 146/3/6 160/3/6 167/3/6
f 167/3/6 160/3/6 168/3/6
f 168/3/6 160/3/6 169/3/6
f 169/3/6 160/3/6 170/3/6
f 160/2/6 165/2/6 171/2/6
f 170/3/6 160/3/6 171/3/6
f 165/2/6 166/2/6 171/2/6
f 169/3/6 170/3/6 172/3/6
f 170/2/6 171/2/6 173/2/6
f 172/3/6 170/3/6 173/3/6
f 171/2/6 166/2/6 174/2/6
f 173/2/6 171/2/6 174/2/6
f 166/2/6 164/2/6 175/2/6
f 174/2/6 166/2/6 175/2/6
f 175/2/6 164/2/6 176/2/6
f 173/2/6 174/2/6 177/2/6
f 172/2/6 173/2/6 177/2/6
f 177/2/6 174/2/6 178/2/6
f 176/2/6 164/2/6 179/2/6
f 175/1/6 176/1/6 179/1/6
f 179/2/6 164/2/6 180/2/6
f 169/3/6 172/3/6 181/3/6
f 172/2/6 177/2/6 181/2/6
f 181/2/6 177/2/6 182/2/6
f 182/2/6 177/2/6 183/2/6
f 177/3/6 178/3/6 184/3/6
f 183/2/6 177/2/6 184/2/6
f 174/3/6 175/3/6 185/3/6
f 175/1/6 179/1/6 185/1/6
f 179/3/6 180/3/6 186/3/6
f 185/1/6 179/1/6 186/1/6
f 168/1/6 169/1/6 187/1/6
f 167/2/6 168/2/6 187/2/6
f 187/1/6 169/1/6 188/1/6
f 182/2/6 183/2/6 189/2/6
f 183/3/6 184/3/6 189/3/6
f 184/3/6 178/3/6 190/3/6
f 189/3/6 184/3/6 190/3/6
f 142/3/6 167/3/6 191/3/6
f 187/2/6 188/2/6 191/2/6
f 167/2/6 187/2/6 191/2/6
f 191/2/6 188/2/6 192/2/6
f 192/2/6 188/2/6 193/2/6
f 188/1/6 169/1/6 194/1/6
f 193/2/6 188/2/6 194/2/6
f 169/3/6 181/3/6 195/3/6
f 194/1/6 169/1/6 195/1/6
f 181/3/6 182/3/6 195/3/6
f 182/2/6 189/2/6 196/2/6
f 195/3/6 182/3/6 196/3/6
f 189/2/6 190/2/6 196/2/6
f 196/2/6 190/2/6 197/2/6
f 180/2/6 164/2/6 198/2/6
f 164/3/6 145/3/6 199/3/6
f 198/2/6 164/2/6 199/2/6
f 190/3/6 178/3/6 200/3/6
f 197/2/6 190/2/6 200/2/6
f 178/2/6 174/2/6 201/2/6
f 200/3/6 178/3/6 201/3/6
f 185/3/6 186/3/6 202/3/6
f 201/2/6 174/2/6 202/2/6
f 200/2/6 201/2/6 202/2/6
f 174/3/6 185/3/6 202/3/6
f 202/3/6 186/3/6 203/3/6
f 180/2/6 198/2/6 204/2/6
f 203/3/6 186/3/6 204/3/6
f 186/3/6 180/3/6 204/3/6
f 204/2/6 198/2/6 205/2/6
f 142/3/6 191/3/6 206/3/6
f 191/3/6 192/3/6 206/3/6
f 192/2/6 193/2/6 207/2/6
f 206/3/6 192/3/6 207/3/6
f 196/3/6 197/3/6 208/3/6
f 207/2/6 193/2/6 208/2/6
f 194/3/6 195/3/6 208/3/6
f 195/3/6 196/3/6 208/3/6
f 193/3/6 194/3/6 208/3/6
f 197/2/6 200/2/6 209/2/6
f 208/3/6 197/3/6 209/3/6
f 202/2/6 203/2/6 209/2/6
f 200/2/6 202/2/6 209/2/6
f 204/3/6 205/3/6 210/3/6
f 209/2/6 203/2/6 210/2/6
f 203/3/6 204/3/6 210/3/6
f 205/2/6 198/2/6 211/2/6
f 210/3/6 205/3/6 211/3/6
f 198/3/6 199/3/6 212/3/6
f 211/2/6 198/2/6 212/2/6
f 199/3/6 145/3/6 213/3/6
f 212/3/6 199/3/6 213/3/6
