# MagicaVoxel @ Ephtracy

# group
o 

# material
mtllib CatapultWeapon.mtl
usemtl palette

# normals
vn -1 0 0
vn 1 0 0
vn 0 0 1
vn 0 0 -1
vn 0 -1 0
vn 0 1 0

# texcoords
vt 0.232422 0.5
vt 0.845703 0.5
vt 0.986328 0.5

# verts
v 1.6 3.2 -3.4
v 1.6 3.2 -3.8
v 1.6 3.5 -3.4
v 1.6 3.5 -3.5
v 1.6 3.6 -3.5
v 1.6 3.6 -3.8
v 1.7 3.1 -3
v 1.7 3.1 -3.3
v 1.7 3.1 -3.8
v 1.7 3.2 -3
v 1.7 3.2 -3.2
v 1.7 3.2 -3.3
v 1.7 3.2 -3.4
v 1.7 3.2 -3.8
v 1.7 3.2 -3.9
v 1.7 3.3 -3.2
v 1.7 3.3 -3.3
v 1.7 3.5 -3.3
v 1.7 3.5 -3.4
v 1.7 3.6 -3.8
v 1.7 3.6 -3.9
v 1.8 3 -1
v 1.8 3 -1.7
v 1.8 3 -3
v 1.8 3 -3.4
v 1.8 3 -3.8
v 1.8 3.1 -1
v 1.8 3.1 -1.5
v 1.8 3.1 -1.7
v 1.8 3.1 -2.6
v 1.8 3.1 -2.9
v 1.8 3.1 -3
v 1.8 3.1 -3.3
v 1.8 3.1 -3.4
v 1.8 3.1 -3.8
v 1.8 3.1 -3.9
v 1.8 3.2 -2.6
v 1.8 3.2 -2.9
v 1.8 3.2 -3
v 1.8 3.2 -3.2
v 1.8 3.2 -3.8
v 1.8 3.2 -3.9
v 1.8 3.2 -4
v 1.8 3.3 -1.5
v 1.8 3.3 -2.7
v 1.8 3.3 -3.1
v 1.8 3.3 -3.2
v 1.8 3.3 -3.3
v 1.8 3.4 -2.7
v 1.8 3.4 -3.1
v 1.8 3.4 -3.2
v 1.8 3.5 -3.2
v 1.8 3.5 -3.3
v 1.8 3.6 -3.9
v 1.8 3.6 -4
v 1.9 3 -0.9
v 1.9 3 -1
v 1.9 3 -1.7
v 1.9 3 -2.5
v 1.9 3 -3
v 1.9 3.1 -0.9
v 1.9 3.1 -1
v 1.9 3.1 -1.2
v 1.9 3.1 -1.3
v 1.9 3.1 -1.5
v 1.9 3.1 -1.7
v 1.9 3.1 -2.5
v 1.9 3.1 -2.6
v 1.9 3.1 -2.9
v 1.9 3.1 -3
v 1.9 3.2 -1.2
v 1.9 3.2 -1.3
v 1.9 3.2 -1.5
v 1.9 3.2 -2.6
v 1.9 3.2 -2.9
v 1.9 3.3 -1.3
v 1.9 3.3 -1.5
v 1.9 3.3 -2.7
v 1.9 3.4 -1.5
v 1.9 3.4 -2.7
v 2.2 3.3 -3.4
v 2.2 3.3 -3.8
v 2.2 3.4 -3.3
v 2.2 3.4 -3.4
v 2.2 3.4 -3.8
v 2.2 3.4 -3.9
v 2.2 3.5 -3.3
v 2.2 3.5 -3.4
v 2.2 3.6 -3.8
v 2.2 3.6 -3.9
v 2.3 3.4 -3.4
v 2.3 3.4 -3.8
v 2.3 3.5 -3.4
v 2.3 3.5 -3.5
v 2.3 3.6 -3.5
v 2.3 3.6 -3.8
v 1.7 3.4 -3.4
v 1.7 3.4 -3.8
v 1.7 3.5 -3.4
v 1.7 3.5 -3.5
v 1.7 3.6 -3.5
v 1.7 3.6 -3.8
v 1.8 3.3 -3.4
v 1.8 3.3 -3.8
v 1.8 3.4 -3.3
v 1.8 3.4 -3.4
v 1.8 3.4 -3.8
v 1.8 3.4 -3.9
v 1.8 3.5 -3.3
v 1.8 3.5 -3.4
v 1.8 3.6 -3.8
v 1.8 3.6 -3.9
v 2.1 3 -0.9
v 2.1 3 -1
v 2.1 3 -1.7
v 2.1 3 -2.5
v 2.1 3 -3
v 2.1 3.1 -0.9
v 2.1 3.1 -1
v 2.1 3.1 -1.2
v 2.1 3.1 -1.3
v 2.1 3.1 -1.5
v 2.1 3.1 -1.7
v 2.1 3.1 -2.5
v 2.1 3.1 -2.6
v 2.1 3.1 -2.9
v 2.1 3.1 -3
v 2.1 3.2 -1.2
v 2.1 3.2 -1.3
v 2.1 3.2 -1.5
v 2.1 3.2 -2.6
v 2.1 3.2 -2.9
v 2.1 3.3 -1.3
v 2.1 3.3 -1.5
v 2.1 3.3 -2.7
v 2.1 3.4 -1.5
v 2.1 3.4 -2.7
v 2.2 3 -1
v 2.2 3 -1.7
v 2.2 3 -3
v 2.2 3 -3.4
v 2.2 3 -3.8
v 2.2 3.1 -1
v 2.2 3.1 -1.5
v 2.2 3.1 -1.7
v 2.2 3.1 -2.6
v 2.2 3.1 -2.9
v 2.2 3.1 -3
v 2.2 3.1 -3.3
v 2.2 3.1 -3.4
v 2.2 3.1 -3.8
v 2.2 3.1 -3.9
v 2.2 3.2 -2.6
v 2.2 3.2 -2.9
v 2.2 3.2 -3
v 2.2 3.2 -3.2
v 2.2 3.2 -3.8
v 2.2 3.2 -3.9
v 2.2 3.2 -4
v 2.2 3.3 -1.5
v 2.2 3.3 -2.7
v 2.2 3.3 -3.1
v 2.2 3.3 -3.2
v 2.2 3.3 -3.3
v 2.2 3.4 -2.7
v 2.2 3.4 -3.1
v 2.2 3.4 -3.2
v 2.2 3.5 -3.2
v 2.2 3.5 -3.3
v 2.2 3.6 -3.9
v 2.2 3.6 -4
v 2.3 3.1 -3
v 2.3 3.1 -3.3
v 2.3 3.1 -3.8
v 2.3 3.2 -3
v 2.3 3.2 -3.2
v 2.3 3.2 -3.3
v 2.3 3.2 -3.4
v 2.3 3.2 -3.8
v 2.3 3.2 -3.9
v 2.3 3.3 -3.2
v 2.3 3.3 -3.3
v 2.3 3.5 -3.3
v 2.3 3.5 -3.4
v 2.3 3.6 -3.8
v 2.3 3.6 -3.9
v 2.4 3.2 -3.4
v 2.4 3.2 -3.8
v 2.4 3.5 -3.4
v 2.4 3.5 -3.5
v 2.4 3.6 -3.5
v 2.4 3.6 -3.8
v 1.9 3 -0.9
v 1.9 3.1 -0.9
v 2.1 3 -0.9
v 2.1 3.1 -0.9
v 1.8 3 -1
v 1.8 3.1 -1
v 1.9 3 -1
v 1.9 3.1 -1
v 2.1 3 -1
v 2.1 3.1 -1
v 2.2 3 -1
v 2.2 3.1 -1
v 1.9 3.1 -1.2
v 1.9 3.2 -1.2
v 2.1 3.1 -1.2
v 2.1 3.2 -1.2
v 1.9 3.2 -1.3
v 1.9 3.3 -1.3
v 2.1 3.2 -1.3
v 2.1 3.3 -1.3
v 1.8 3.1 -1.5
v 1.8 3.3 -1.5
v 1.9 3.1 -1.5
v 1.9 3.2 -1.5
v 1.9 3.3 -1.5
v 1.9 3.4 -1.5
v 2.1 3.1 -1.5
v 2.1 3.2 -1.5
v 2.1 3.3 -1.5
v 2.1 3.4 -1.5
v 2.2 3.1 -1.5
v 2.2 3.3 -1.5
v 1.8 3.3 -2.7
v 1.8 3.4 -2.7
v 1.9 3.3 -2.7
v 1.9 3.4 -2.7
v 2.1 3.3 -2.7
v 2.1 3.4 -2.7
v 2.2 3.3 -2.7
v 2.2 3.4 -2.7
v 1.8 3.1 -2.9
v 1.8 3.2 -2.9
v 1.9 3.1 -2.9
v 1.9 3.2 -2.9
v 2.1 3.1 -2.9
v 2.1 3.2 -2.9
v 2.2 3.1 -2.9
v 2.2 3.2 -2.9
v 1.7 3.1 -3
v 1.7 3.2 -3
v 1.8 3 -3
v 1.8 3.1 -3
v 1.8 3.2 -3
v 1.9 3 -3
v 1.9 3.1 -3
v 2.1 3 -3
v 2.1 3.1 -3
v 2.2 3 -3
v 2.2 3.1 -3
v 2.2 3.2 -3
v 2.3 3.1 -3
v 2.3 3.2 -3
v 1.7 3.2 -3.2
v 1.7 3.3 -3.2
v 1.8 3.2 -3.2
v 1.8 3.3 -3.2
v 1.8 3.4 -3.2
v 1.8 3.5 -3.2
v 1.9 3.4 -3.2
v 2.1 3.4 -3.2
v 2.2 3.2 -3.2
v 2.2 3.3 -3.2
v 2.2 3.4 -3.2
v 2.2 3.5 -3.2
v 2.3 3.2 -3.2
v 2.3 3.3 -3.2
v 1.7 3.3 -3.3
v 1.7 3.5 -3.3
v 1.8 3.3 -3.3
v 1.8 3.5 -3.3
v 2.2 3.3 -3.3
v 2.2 3.5 -3.3
v 2.3 3.3 -3.3
v 2.3 3.5 -3.3
v 1.6 3.2 -3.4
v 1.6 3.5 -3.4
v 1.7 3.2 -3.4
v 1.7 3.5 -3.4
v 2.3 3.2 -3.4
v 2.3 3.5 -3.4
v 2.4 3.2 -3.4
v 2.4 3.5 -3.4
v 1.6 3.5 -3.5
v 1.6 3.6 -3.5
v 1.7 3.5 -3.5
v 1.7 3.6 -3.5
v 2.3 3.5 -3.5
v 2.3 3.6 -3.5
v 2.4 3.5 -3.5
v 2.4 3.6 -3.5
v 1.7 3.4 -3.8
v 1.7 3.6 -3.8
v 1.8 3.3 -3.8
v 1.8 3.4 -3.8
v 1.8 3.6 -3.8
v 2.2 3.3 -3.8
v 2.2 3.4 -3.8
v 2.2 3.6 -3.8
v 2.3 3.4 -3.8
v 2.3 3.6 -3.8
v 1.8 3.4 -3.9
v 1.8 3.6 -3.9
v 2.2 3.4 -3.9
v 2.2 3.6 -3.9
v 1.8 3 -1.7
v 1.8 3.1 -1.7
v 1.9 3 -1.7
v 1.9 3.1 -1.7
v 2.1 3 -1.7
v 2.1 3.1 -1.7
v 2.2 3 -1.7
v 2.2 3.1 -1.7
v 1.8 3.1 -2.6
v 1.8 3.2 -2.6
v 1.9 3.1 -2.6
v 1.9 3.2 -2.6
v 2.1 3.1 -2.6
v 2.1 3.2 -2.6
v 2.2 3.1 -2.6
v 2.2 3.2 -2.6
v 1.8 3.4 -3.3
v 1.8 3.5 -3.3
v 2.2 3.4 -3.3
v 2.2 3.5 -3.3
v 1.7 3.4 -3.4
v 1.7 3.5 -3.4
v 1.8 3.3 -3.4
v 1.8 3.4 -3.4
v 1.8 3.5 -3.4
v 2.2 3.3 -3.4
v 2.2 3.4 -3.4
v 2.2 3.5 -3.4
v 2.3 3.4 -3.4
v 2.3 3.5 -3.4
v 1.6 3.2 -3.8
v 1.6 3.6 -3.8
v 1.7 3.1 -3.8
v 1.7 3.2 -3.8
v 1.7 3.6 -3.8
v 1.8 3 -3.8
v 1.8 3.1 -3.8
v 1.8 3.2 -3.8
v 2.2 3 -3.8
v 2.2 3.1 -3.8
v 2.2 3.2 -3.8
v 2.3 3.1 -3.8
v 2.3 3.2 -3.8
v 2.3 3.6 -3.8
v 2.4 3.2 -3.8
v 2.4 3.6 -3.8
v 1.7 3.2 -3.9
v 1.7 3.6 -3.9
v 1.8 3.1 -3.9
v 1.8 3.2 -3.9
v 1.8 3.6 -3.9
v 2.2 3.1 -3.9
v 2.2 3.2 -3.9
v 2.2 3.6 -3.9
v 2.3 3.2 -3.9
v 2.3 3.6 -3.9
v 1.8 3.2 -4
v 1.8 3.6 -4
v 2.2 3.2 -4
v 2.2 3.6 -4
v 1.9 3 -0.9
v 2.1 3 -0.9
v 1.8 3 -1
v 1.9 3 -1
v 2.1 3 -1
v 2.2 3 -1
v 1.9 3 -1.2
v 2.1 3 -1.2
v 1.8 3 -1.7
v 1.9 3 -1.7
v 2.1 3 -1.7
v 2.2 3 -1.7
v 1.9 3 -2.5
v 2.1 3 -2.5
v 1.8 3 -3
v 1.9 3 -3
v 2.1 3 -3
v 2.2 3 -3
v 1.8 3 -3.4
v 1.9 3 -3.4
v 2.1 3 -3.4
v 2.2 3 -3.4
v 1.9 3 -3.5
v 2.1 3 -3.5
v 1.8 3 -3.8
v 2.2 3 -3.8
v 1.8 3.1 -1.7
v 1.9 3.1 -1.7
v 2.1 3.1 -1.7
v 2.2 3.1 -1.7
v 1.9 3.1 -2.5
v 2.1 3.1 -2.5
v 1.8 3.1 -2.6
v 1.9 3.1 -2.6
v 2.1 3.1 -2.6
v 2.2 3.1 -2.6
v 1.8 3.1 -2.9
v 1.9 3.1 -2.9
v 2.1 3.1 -2.9
v 2.2 3.1 -2.9
v 1.7 3.1 -3
v 1.8 3.1 -3
v 1.9 3.1 -3
v 2.1 3.1 -3
v 2.2 3.1 -3
v 2.3 3.1 -3
v 1.7 3.1 -3.3
v 1.8 3.1 -3.3
v 2.2 3.1 -3.3
v 2.3 3.1 -3.3
v 1.8 3.1 -3.4
v 2.2 3.1 -3.4
v 1.7 3.1 -3.8
v 1.8 3.1 -3.8
v 2.2 3.1 -3.8
v 2.3 3.1 -3.8
v 1.8 3.1 -3.9
v 2.2 3.1 -3.9
v 1.8 3.2 -2.6
v 1.9 3.2 -2.6
v 2.1 3.2 -2.6
v 2.2 3.2 -2.6
v 1.8 3.2 -2.9
v 1.9 3.2 -2.9
v 2.1 3.2 -2.9
v 2.2 3.2 -2.9
v 1.6 3.2 -3.4
v 1.7 3.2 -3.4
v 2.3 3.2 -3.4
v 2.4 3.2 -3.4
v 1.6 3.2 -3.8
v 1.7 3.2 -3.8
v 1.8 3.2 -3.8
v 2.2 3.2 -3.8
v 2.3 3.2 -3.8
v 2.4 3.2 -3.8
v 1.7 3.2 -3.9
v 1.8 3.2 -3.9
v 2.2 3.2 -3.9
v 2.3 3.2 -3.9
v 1.8 3.2 -4
v 2.2 3.2 -4
v 1.9 3.1 -0.9
v 2.1 3.1 -0.9
v 1.8 3.1 -1
v 1.9 3.1 -1
v 2.1 3.1 -1
v 2.2 3.1 -1
v 1.9 3.1 -1.2
v 2.1 3.1 -1.2
v 1.9 3.1 -1.3
v 2.1 3.1 -1.3
v 1.8 3.1 -1.5
v 1.9 3.1 -1.5
v 2.1 3.1 -1.5
v 2.2 3.1 -1.5
v 1.9 3.2 -1.2
v 2.1 3.2 -1.2
v 1.9 3.2 -1.3
v 2.1 3.2 -1.3
v 1.7 3.2 -3
v 1.8 3.2 -3
v 2.2 3.2 -3
v 2.3 3.2 -3
v 1.7 3.2 -3.2
v 1.8 3.2 -3.2
v 2.2 3.2 -3.2
v 2.3 3.2 -3.2
v 1.9 3.3 -1.3
v 2.1 3.3 -1.3
v 1.8 3.3 -1.5
v 1.9 3.3 -1.5
v 2.1 3.3 -1.5
v 2.2 3.3 -1.5
v 1.8 3.3 -2.7
v 1.9 3.3 -2.7
v 2.1 3.3 -2.7
v 2.2 3.3 -2.7
v 1.7 3.3 -3.2
v 1.8 3.3 -3.2
v 2.2 3.3 -3.2
v 2.3 3.3 -3.2
v 1.7 3.3 -3.3
v 1.8 3.3 -3.3
v 2.2 3.3 -3.3
v 2.3 3.3 -3.3
v 1.8 3.3 -3.4
v 2.2 3.3 -3.4
v 1.8 3.3 -3.8
v 2.2 3.3 -3.8
v 1.9 3.4 -1.5
v 2.1 3.4 -1.5
v 1.8 3.4 -2.7
v 1.9 3.4 -2.7
v 2.1 3.4 -2.7
v 2.2 3.4 -2.7
v 1.8 3.4 -3.1
v 1.9 3.4 -3.1
v 2.1 3.4 -3.1
v 2.2 3.4 -3.1
v 1.8 3.4 -3.2
v 1.9 3.4 -3.2
v 2.1 3.4 -3.2
v 2.2 3.4 -3.2
v 1.8 3.4 -3.3
v 2.2 3.4 -3.3
v 1.7 3.4 -3.4
v 1.8 3.4 -3.4
v 2.2 3.4 -3.4
v 2.3 3.4 -3.4
v 1.7 3.4 -3.8
v 1.8 3.4 -3.8
v 2.2 3.4 -3.8
v 2.3 3.4 -3.8
v 1.8 3.4 -3.9
v 2.2 3.4 -3.9
v 1.8 3.5 -3.2
v 2.2 3.5 -3.2
v 1.7 3.5 -3.3
v 1.8 3.5 -3.3
v 2.2 3.5 -3.3
v 2.3 3.5 -3.3
v 1.6 3.5 -3.4
v 1.7 3.5 -3.4
v 1.8 3.5 -3.4
v 2.2 3.5 -3.4
v 2.3 3.5 -3.4
v 2.4 3.5 -3.4
v 1.6 3.5 -3.5
v 1.7 3.5 -3.5
v 2.3 3.5 -3.5
v 2.4 3.5 -3.5
v 1.6 3.6 -3.5
v 1.7 3.6 -3.5
v 2.3 3.6 -3.5
v 2.4 3.6 -3.5
v 1.6 3.6 -3.8
v 1.7 3.6 -3.8
v 1.8 3.6 -3.8
v 2.2 3.6 -3.8
v 2.3 3.6 -3.8
v 2.4 3.6 -3.8
v 1.7 3.6 -3.9
v 1.8 3.6 -3.9
v 2.2 3.6 -3.9
v 2.3 3.6 -3.9
v 1.8 3.6 -4
v 2.2 3.6 -4

# faces
f 3/3/1 2/3/1 1/3/1
f 4/3/1 2/3/1 3/3/1
f 5/3/1 2/3/1 4/3/1
f 6/3/1 2/3/1 5/3/1
f 10/1/1 8/1/1 7/1/1
f 11/1/1 8/1/1 10/1/1
f 12/3/1 9/3/1 8/3/1
f 12/1/1 8/1/1 11/1/1
f 13/3/1 9/3/1 12/3/1
f 14/3/1 9/3/1 13/3/1
f 16/3/1 12/3/1 11/3/1
f 16/3/1 13/3/1 12/3/1
f 17/3/1 13/3/1 16/3/1
f 18/3/1 13/3/1 17/3/1
f 19/3/1 13/3/1 18/3/1
f 20/3/1 15/3/1 14/3/1
f 21/3/1 15/3/1 20/3/1
f 27/1/1 23/1/1 22/1/1
f 28/1/1 23/1/1 27/1/1
f 29/1/1 23/1/1 28/1/1
f 32/1/1 25/1/1 24/1/1
f 33/1/1 25/1/1 32/1/1
f 34/3/1 26/3/1 25/3/1
f 34/1/1 25/1/1 33/1/1
f 35/3/1 26/3/1 34/3/1
f 37/1/1 30/1/1 29/1/1
f 37/1/1 29/1/1 28/1/1
f 38/1/1 32/1/1 31/1/1
f 39/1/1 32/1/1 38/1/1
f 41/3/1 36/3/1 35/3/1
f 42/3/1 36/3/1 41/3/1
f 44/1/1 40/1/1 39/1/1
f 44/1/1 37/1/1 28/1/1
f 44/1/1 38/1/1 37/1/1
f 44/1/1 39/1/1 38/1/1
f 45/1/1 40/1/1 44/1/1
f 46/1/1 40/1/1 45/1/1
f 47/1/1 40/1/1 46/1/1
f 49/1/1 46/1/1 45/1/1
f 50/3/1 48/3/1 47/3/1
f 50/1/1 46/1/1 49/1/1
f 50/3/1 47/3/1 46/3/1
f 51/3/1 48/3/1 50/3/1
f 52/3/1 48/3/1 51/3/1
f 53/3/1 48/3/1 52/3/1
f 54/3/1 43/3/1 42/3/1
f 55/3/1 43/3/1 54/3/1
f 61/2/1 57/2/1 56/2/1
f 62/2/1 57/2/1 61/2/1
f 66/1/1 59/1/1 58/1/1
f 67/2/1 60/2/1 59/2/1
f 67/1/1 59/1/1 66/1/1
f 68/2/1 60/2/1 67/2/1
f 69/2/1 60/2/1 68/2/1
f 70/2/1 60/2/1 69/2/1
f 71/2/1 64/2/1 63/2/1
f 72/1/1 65/1/1 64/1/1
f 72/2/1 64/2/1 71/2/1
f 73/1/1 65/1/1 72/1/1
f 74/2/1 69/2/1 68/2/1
f 75/2/1 69/2/1 74/2/1
f 76/2/1 73/2/1 72/2/1
f 77/2/1 73/2/1 76/2/1
f 79/2/1 78/2/1 77/2/1
f 80/2/1 78/2/1 79/2/1
f 84/3/1 82/3/1 81/3/1
f 85/3/1 82/3/1 84/3/1
f 87/3/1 84/3/1 83/3/1
f 88/3/1 84/3/1 87/3/1
f 89/3/1 86/3/1 85/3/1
f 90/3/1 86/3/1 89/3/1
f 93/3/1 92/3/1 91/3/1
f 94/3/1 92/3/1 93/3/1
f 95/3/1 92/3/1 94/3/1
f 96/3/1 92/3/1 95/3/1
f 97/3/2 98/3/2 99/3/2
f 99/3/2 98/3/2 100/3/2
f 100/3/2 98/3/2 101/3/2
f 101/3/2 98/3/2 102/3/2
f 103/3/2 104/3/2 106/3/2
f 106/3/2 104/3/2 107/3/2
f 105/3/2 106/3/2 109/3/2
f 109/3/2 106/3/2 110/3/2
f 107/3/2 108/3/2 111/3/2
f 111/3/2 108/3/2 112/3/2
f 113/2/2 114/2/2 118/2/2
f 118/2/2 114/2/2 119/2/2
f 115/1/2 116/1/2 123/1/2
f 116/2/2 117/2/2 124/2/2
f 123/1/2 116/1/2 124/1/2
f 124/2/2 117/2/2 125/2/2
f 125/2/2 117/2/2 126/2/2
f 126/2/2 117/2/2 127/2/2
f 120/2/2 121/2/2 128/2/2
f 121/1/2 122/1/2 129/1/2
f 128/2/2 121/2/2 129/2/2
f 129/1/2 122/1/2 130/1/2
f 125/2/2 126/2/2 131/2/2
f 131/2/2 126/2/2 132/2/2
f 129/2/2 130/2/2 133/2/2
f 133/2/2 130/2/2 134/2/2
f 134/2/2 135/2/2 136/2/2
f 136/2/2 135/2/2 137/2/2
f 138/1/2 139/1/2 143/1/2
f 143/1/2 139/1/2 144/1/2
f 144/1/2 139/1/2 145/1/2
f 140/1/2 141/1/2 148/1/2
f 148/1/2 141/1/2 149/1/2
f 141/3/2 142/3/2 150/3/2
f 149/1/2 141/1/2 150/1/2
f 150/3/2 142/3/2 151/3/2
f 145/1/2 146/1/2 153/1/2
f 144/1/2 145/1/2 153/1/2
f 147/1/2 148/1/2 154/1/2
f 154/1/2 148/1/2 155/1/2
f 151/3/2 152/3/2 157/3/2
f 157/3/2 152/3/2 158/3/2
f 155/1/2 156/1/2 160/1/2
f 144/1/2 153/1/2 160/1/2
f 153/1/2 154/1/2 160/1/2
f 154/1/2 155/1/2 160/1/2
f 160/1/2 156/1/2 161/1/2
f 161/1/2 156/1/2 162/1/2
f 162/1/2 156/1/2 163/1/2
f 161/1/2 162/1/2 165/1/2
f 163/3/2 164/3/2 166/3/2
f 165/1/2 162/1/2 166/1/2
f 162/3/2 163/3/2 166/3/2
f 166/3/2 164/3/2 167/3/2
f 167/3/2 164/3/2 168/3/2
f 168/3/2 164/3/2 169/3/2
f 158/3/2 159/3/2 170/3/2
f 170/3/2 159/3/2 171/3/2
f 172/1/2 173/1/2 175/1/2
f 175/1/2 173/1/2 176/1/2
f 173/3/2 174/3/2 177/3/2
f 176/1/2 173/1/2 177/1/2
f 177/3/2 174/3/2 178/3/2
f 178/3/2 174/3/2 179/3/2
f 176/3/2 177/3/2 181/3/2
f 177/3/2 178/3/2 181/3/2
f 181/3/2 178/3/2 182/3/2
f 182/3/2 178/3/2 183/3/2
f 183/3/2 178/3/2 184/3/2
f 179/3/2 180/3/2 185/3/2
f 185/3/2 180/3/2 186/3/2
f 187/3/2 188/3/2 189/3/2
f 189/3/2 188/3/2 190/3/2
f 190/3/2 188/3/2 191/3/2
f 191/3/2 188/3/2 192/3/2
f 195/2/3 194/2/3 193/2/3
f 196/2/3 194/2/3 195/2/3
f 199/1/3 198/1/3 197/1/3
f 200/1/3 198/1/3 199/1/3
f 203/1/3 202/1/3 201/1/3
f 204/1/3 202/1/3 203/1/3
f 207/2/3 206/2/3 205/2/3
f 208/2/3 206/2/3 207/2/3
f 211/2/3 210/2/3 209/2/3
f 212/2/3 210/2/3 211/2/3
f 215/1/3 214/1/3 213/1/3
f 216/1/3 214/1/3 215/1/3
f 217/1/3 214/1/3 216/1/3
f 221/2/3 218/2/3 217/2/3
f 222/2/3 218/2/3 221/2/3
f 223/1/3 220/1/3 219/1/3
f 223/1/3 221/1/3 220/1/3
f 224/1/3 221/1/3 223/1/3
f 227/1/3 226/1/3 225/1/3
f 228/1/3 226/1/3 227/1/3
f 231/1/3 230/1/3 229/1/3
f 232/1/3 230/1/3 231/1/3
f 235/1/3 234/1/3 233/1/3
f 236/1/3 234/1/3 235/1/3
f 239/1/3 238/1/3 237/1/3
f 240/1/3 238/1/3 239/1/3
f 244/1/3 242/1/3 241/1/3
f 245/1/3 242/1/3 244/1/3
f 246/1/3 244/1/3 243/1/3
f 247/1/3 244/1/3 246/1/3
f 250/1/3 249/1/3 248/1/3
f 251/1/3 249/1/3 250/1/3
f 253/1/3 252/1/3 251/1/3
f 254/1/3 252/1/3 253/1/3
f 257/3/3 256/3/3 255/3/3
f 258/3/3 256/3/3 257/3/3
f 261/3/3 260/3/3 259/3/3
f 262/3/3 260/3/3 261/3/3
f 265/3/3 260/3/3 262/3/3
f 266/3/3 260/3/3 265/3/3
f 267/3/3 264/3/3 263/3/3
f 268/3/3 264/3/3 267/3/3
f 271/3/3 270/3/3 269/3/3
f 272/3/3 270/3/3 271/3/3
f 275/3/3 274/3/3 273/3/3
f 276/3/3 274/3/3 275/3/3
f 279/3/3 278/3/3 277/3/3
f 280/3/3 278/3/3 279/3/3
f 283/3/3 282/3/3 281/3/3
f 284/3/3 282/3/3 283/3/3
f 287/3/3 286/3/3 285/3/3
f 288/3/3 286/3/3 287/3/3
f 291/3/3 290/3/3 289/3/3
f 292/3/3 290/3/3 291/3/3
f 296/3/3 294/3/3 293/3/3
f 297/3/3 294/3/3 296/3/3
f 298/3/3 296/3/3 295/3/3
f 299/3/3 296/3/3 298/3/3
f 301/3/3 300/3/3 299/3/3
f 302/3/3 300/3/3 301/3/3
f 305/3/3 304/3/3 303/3/3
f 306/3/3 304/3/3 305/3/3
f 307/1/4 308/1/4 309/1/4
f 309/1/4 308/1/4 310/1/4
f 311/1/4 312/1/4 313/1/4
f 313/1/4 312/1/4 314/1/4
f 315/1/4 316/1/4 317/1/4
f 317/1/4 316/1/4 318/1/4
f 319/1/4 320/1/4 321/1/4
f 321/1/4 320/1/4 322/1/4
f 323/3/4 324/3/4 325/3/4
f 325/3/4 324/3/4 326/3/4
f 327/3/4 328/3/4 330/3/4
f 330/3/4 328/3/4 331/3/4
f 329/3/4 330/3/4 332/3/4
f 332/3/4 330/3/4 333/3/4
f 333/3/4 334/3/4 335/3/4
f 335/3/4 334/3/4 336/3/4
f 337/3/4 338/3/4 340/3/4
f 340/3/4 338/3/4 341/3/4
f 339/3/4 340/3/4 343/3/4
f 343/3/4 340/3/4 344/3/4
f 342/3/4 343/3/4 345/3/4
f 345/3/4 343/3/4 346/3/4
f 346/3/4 347/3/4 348/3/4
f 348/3/4 347/3/4 349/3/4
f 349/3/4 350/3/4 351/3/4
f 351/3/4 350/3/4 352/3/4
f 353/3/4 354/3/4 356/3/4
f 356/3/4 354/3/4 357/3/4
f 355/3/4 356/3/4 358/3/4
f 358/3/4 356/3/4 359/3/4
f 359/3/4 360/3/4 361/3/4
f 361/3/4 360/3/4 362/3/4
f 363/3/4 364/3/4 365/3/4
f 365/3/4 364/3/4 366/3/4
f 370/2/5 368/2/5 367/2/5
f 371/2/5 368/2/5 370/2/5
f 373/1/5 370/1/5 369/1/5
f 373/2/5 371/2/5 370/2/5
f 374/1/5 372/1/5 371/1/5
f 374/2/5 371/2/5 373/2/5
f 375/1/5 373/1/5 369/1/5
f 375/1/5 374/1/5 373/1/5
f 376/1/5 374/1/5 375/1/5
f 377/1/5 372/1/5 374/1/5
f 377/1/5 374/1/5 376/1/5
f 378/1/5 372/1/5 377/1/5
f 379/1/5 377/1/5 376/1/5
f 380/1/5 377/1/5 379/1/5
f 382/2/5 380/2/5 379/2/5
f 383/2/5 380/2/5 382/2/5
f 385/1/5 383/1/5 382/1/5
f 385/1/5 384/1/5 383/1/5
f 385/1/5 382/1/5 381/1/5
f 386/1/5 384/1/5 385/1/5
f 387/1/5 384/1/5 386/1/5
f 388/1/5 384/1/5 387/1/5
f 389/3/5 386/3/5 385/3/5
f 389/1/5 387/1/5 386/1/5
f 390/3/5 388/3/5 387/3/5
f 390/1/5 387/1/5 389/1/5
f 391/3/5 389/3/5 385/3/5
f 391/3/5 390/3/5 389/3/5
f 392/3/5 388/3/5 390/3/5
f 392/3/5 390/3/5 391/3/5
f 397/1/5 394/1/5 393/1/5
f 398/1/5 396/1/5 395/1/5
f 399/1/5 397/1/5 393/1/5
f 400/1/5 397/1/5 399/1/5
f 401/1/5 396/1/5 398/1/5
f 402/1/5 396/1/5 401/1/5
f 408/1/5 404/1/5 403/1/5
f 409/1/5 404/1/5 408/1/5
f 410/1/5 406/1/5 405/1/5
f 411/1/5 406/1/5 410/1/5
f 413/1/5 408/1/5 407/1/5
f 414/1/5 408/1/5 413/1/5
f 415/1/5 412/1/5 411/1/5
f 416/1/5 412/1/5 415/1/5
f 417/3/5 414/3/5 413/3/5
f 418/3/5 416/3/5 415/3/5
f 419/3/5 417/3/5 413/3/5
f 420/3/5 417/3/5 419/3/5
f 421/3/5 416/3/5 418/3/5
f 422/3/5 416/3/5 421/3/5
f 423/3/5 421/3/5 420/3/5
f 424/3/5 421/3/5 423/3/5
f 429/1/5 426/1/5 425/1/5
f 430/1/5 426/1/5 429/1/5
f 431/1/5 428/1/5 427/1/5
f 432/1/5 428/1/5 431/1/5
f 437/3/5 434/3/5 433/3/5
f 438/3/5 434/3/5 437/3/5
f 441/3/5 436/3/5 435/3/5
f 442/3/5 436/3/5 441/3/5
f 443/3/5 439/3/5 438/3/5
f 444/3/5 439/3/5 443/3/5
f 445/3/5 441/3/5 440/3/5
f 446/3/5 441/3/5 445/3/5
f 447/3/5 445/3/5 444/3/5
f 448/3/5 445/3/5 447/3/5
f 449/2/6 450/2/6 452/2/6
f 452/2/6 450/2/6 453/2/6
f 451/1/6 452/1/6 455/1/6
f 452/2/6 453/2/6 455/2/6
f 453/1/6 454/1/6 456/1/6
f 455/2/6 453/2/6 456/2/6
f 451/1/6 455/1/6 457/1/6
f 456/1/6 454/1/6 458/1/6
f 451/1/6 457/1/6 459/1/6
f 459/1/6 457/1/6 460/1/6
f 458/1/6 454/1/6 461/1/6
f 461/1/6 454/1/6 462/1/6
f 463/2/6 464/2/6 465/2/6
f 465/2/6 464/2/6 466/2/6
f 467/1/6 468/1/6 471/1/6
f 471/1/6 468/1/6 472/1/6
f 469/1/6 470/1/6 473/1/6
f 473/1/6 470/1/6 474/1/6
f 475/2/6 476/2/6 478/2/6
f 478/2/6 476/2/6 479/2/6
f 477/1/6 478/1/6 481/1/6
f 481/1/6 478/1/6 482/1/6
f 479/1/6 480/1/6 483/1/6
f 483/1/6 480/1/6 484/1/6
f 485/3/6 486/3/6 489/3/6
f 489/3/6 486/3/6 490/3/6
f 487/3/6 488/3/6 491/3/6
f 491/3/6 488/3/6 492/3/6
f 493/3/6 494/3/6 495/3/6
f 495/3/6 494/3/6 496/3/6
f 497/2/6 498/2/6 500/2/6
f 500/2/6 498/2/6 501/2/6
f 499/1/6 500/1/6 503/1/6
f 500/2/6 501/2/6 504/2/6
f 503/1/6 500/1/6 504/1/6
f 501/1/6 502/1/6 505/1/6
f 504/2/6 501/2/6 505/2/6
f 505/1/6 502/1/6 506/1/6
f 503/3/6 504/3/6 507/3/6
f 504/2/6 505/2/6 508/2/6
f 507/3/6 504/3/6 508/3/6
f 505/3/6 506/3/6 509/3/6
f 508/2/6 505/2/6 509/2/6
f 509/3/6 506/3/6 510/3/6
f 511/3/6 512/3/6 514/3/6
f 514/3/6 512/3/6 515/3/6
f 513/3/6 514/3/6 517/3/6
f 517/3/6 514/3/6 518/3/6
f 515/3/6 516/3/6 519/3/6
f 519/3/6 516/3/6 520/3/6
f 518/3/6 519/3/6 521/3/6
f 521/3/6 519/3/6 522/3/6
f 523/3/6 524/3/6 526/3/6
f 526/3/6 524/3/6 527/3/6
f 525/3/6 526/3/6 530/3/6
f 530/3/6 526/3/6 531/3/6
f 527/3/6 528/3/6 532/3/6
f 532/3/6 528/3/6 533/3/6
f 529/3/6 530/3/6 535/3/6
f 535/3/6 530/3/6 536/3/6
f 533/3/6 534/3/6 537/3/6
f 537/3/6 534/3/6 538/3/6
f 539/3/6 540/3/6 543/3/6
f 543/3/6 540/3/6 544/3/6
f 541/3/6 542/3/6 547/3/6
f 547/3/6 542/3/6 548/3/6
f 544/3/6 545/3/6 549/3/6
f 549/3/6 545/3/6 550/3/6
f 546/3/6 547/3/6 551/3/6
f 551/3/6 547/3/6 552/3/6
f 550/3/6 551/3/6 553/3/6
f 553/3/6 551/3/6 554/3/6
